<?xml version="1.0" encoding="UTF-8"?>
<svg xmlns="http://www.w3.org/2000/svg" width="1024" height="512" viewBox="0 0 1024 512" preserveAspectRatio="none" aria-label="mars texture">
  <defs>
    <linearGradient id="base" x1="0" y1="0" x2="0" y2="1">
      <stop offset="0%" stop-color="#d07c4b"/>
      <stop offset="100%" stop-color="#7a3421"/>
    </linearGradient>
    <filter id="noise">
      <feTurbulence type="fractalNoise" baseFrequency="0.9" numOctaves="3" seed="50"/>
      <feColorMatrix type="saturate" values="0"/>
      <feComponentTransfer>
        <feFuncA type="table" tableValues="0 0.08"/>
      </feComponentTransfer>
    </filter>
  </defs>
  <rect width="100%" height="100%" fill="url(#base)"/>

  <ellipse cx="153.6" cy="40.96" rx="112.64" ry="40.96" fill="#f5efe7" opacity="0.9"/>
  <ellipse cx="870.4" cy="471.04" rx="112.64" ry="40.96" fill="#f5efe7" opacity="0.9"/>
  <ellipse cx="695.65" cy="115.35" rx="92.56" ry="57.41" fill="#5d241a" opacity="0.32" transform="rotate(97.27 695.65 115.35)"/>
  <ellipse cx="443.99" cy="236.83" rx="108.03" ry="17.21" fill="#9d4a2a" opacity="0.30" transform="rotate(24.34 443.99 236.83)"/>
  <ellipse cx="466.70" cy="215.20" rx="78.34" ry="11.45" fill="#b8663a" opacity="0.25" transform="rotate(279.00 466.70 215.20)"/>
  <ellipse cx="225.22" cy="159.73" rx="37.82" ry="18.07" fill="#6f3023" opacity="0.49" transform="rotate(267.12 225.22 159.73)"/>
  <ellipse cx="390.15" cy="54.98" rx="44.88" ry="35.51" fill="#5d241a" opacity="0.43" transform="rotate(334.45 390.15 54.98)"/>
  <ellipse cx="725.73" cy="128.47" rx="83.80" ry="43.19" fill="#9d4a2a" opacity="0.26" transform="rotate(355.03 725.73 128.47)"/>
  <ellipse cx="917.04" cy="37.59" rx="21.65" ry="62.13" fill="#b8663a" opacity="0.48" transform="rotate(183.82 917.04 37.59)"/>
  <ellipse cx="33.57" cy="21.89" rx="114.47" ry="40.56" fill="#6f3023" opacity="0.46" transform="rotate(3.52 33.57 21.89)"/>
  <ellipse cx="1004.33" cy="49.33" rx="88.38" ry="58.96" fill="#5d241a" opacity="0.46" transform="rotate(105.88 1004.33 49.33)"/>
  <ellipse cx="32.14" cy="23.81" rx="156.09" ry="11.93" fill="#9d4a2a" opacity="0.45" transform="rotate(300.90 32.14 23.81)"/>
  <ellipse cx="756.08" cy="387.62" rx="118.65" ry="44.67" fill="#b8663a" opacity="0.32" transform="rotate(224.78 756.08 387.62)"/>
  <ellipse cx="651.95" cy="138.96" rx="122.70" ry="57.55" fill="#6f3023" opacity="0.49" transform="rotate(102.19 651.95 138.96)"/>
  <ellipse cx="353.63" cy="327.27" rx="30.98" ry="21.50" fill="#5d241a" opacity="0.29" transform="rotate(92.80 353.63 327.27)"/>
  <ellipse cx="323.23" cy="335.50" rx="34.49" ry="15.07" fill="#9d4a2a" opacity="0.47" transform="rotate(278.76 323.23 335.50)"/>
  <ellipse cx="826.80" cy="205.12" rx="159.99" ry="41.89" fill="#b8663a" opacity="0.46" transform="rotate(230.96 826.80 205.12)"/>
  <ellipse cx="629.67" cy="89.92" rx="140.10" ry="43.37" fill="#6f3023" opacity="0.44" transform="rotate(270.41 629.67 89.92)"/>
  <ellipse cx="186.07" cy="231.34" rx="105.49" ry="21.01" fill="#5d241a" opacity="0.44" transform="rotate(19.36 186.07 231.34)"/>
  <ellipse cx="107.08" cy="334.59" rx="107.11" ry="24.42" fill="#9d4a2a" opacity="0.40" transform="rotate(276.91 107.08 334.59)"/>
  <ellipse cx="195.75" cy="115.09" rx="44.71" ry="47.70" fill="#b8663a" opacity="0.45" transform="rotate(99.13 195.75 115.09)"/>
  <ellipse cx="275.10" cy="183.64" rx="65.26" ry="63.20" fill="#6f3023" opacity="0.37" transform="rotate(195.81 275.10 183.64)"/>
  <ellipse cx="412.20" cy="136.75" rx="70.00" ry="45.28" fill="#5d241a" opacity="0.37" transform="rotate(257.84 412.20 136.75)"/>
  <ellipse cx="141.85" cy="397.52" rx="157.89" ry="43.21" fill="#9d4a2a" opacity="0.43" transform="rotate(183.45 141.85 397.52)"/>
  <ellipse cx="399.01" cy="330.67" rx="31.92" ry="13.57" fill="#b8663a" opacity="0.23" transform="rotate(60.26 399.01 330.67)"/>
  <ellipse cx="733.66" cy="73.90" rx="24.09" ry="38.94" fill="#6f3023" opacity="0.41" transform="rotate(245.95 733.66 73.90)"/>
  <ellipse cx="567.16" cy="202.34" rx="109.19" ry="13.21" fill="#5d241a" opacity="0.39" transform="rotate(216.36 567.16 202.34)"/>
  <ellipse cx="497.74" cy="317.16" rx="99.93" ry="21.52" fill="#9d4a2a" opacity="0.38" transform="rotate(317.18 497.74 317.16)"/>
  <ellipse cx="536.24" cy="508.16" rx="69.66" ry="25.35" fill="#b8663a" opacity="0.26" transform="rotate(248.45 536.24 508.16)"/>
  <ellipse cx="569.85" cy="94.38" rx="68.22" ry="11.29" fill="#6f3023" opacity="0.33" transform="rotate(210.46 569.85 94.38)"/>
  <ellipse cx="312.64" cy="49.61" rx="95.96" ry="58.95" fill="#5d241a" opacity="0.41" transform="rotate(349.17 312.64 49.61)"/>
  <ellipse cx="243.02" cy="333.77" rx="144.34" ry="42.69" fill="#9d4a2a" opacity="0.39" transform="rotate(0.95 243.02 333.77)"/>
  <ellipse cx="620.69" cy="18.02" rx="64.56" ry="47.04" fill="#b8663a" opacity="0.44" transform="rotate(292.49 620.69 18.02)"/>
  <ellipse cx="93.21" cy="193.68" rx="25.80" ry="53.41" fill="#6f3023" opacity="0.35" transform="rotate(45.60 93.21 193.68)"/>
  <ellipse cx="2.90" cy="393.74" rx="80.60" ry="45.18" fill="#5d241a" opacity="0.37" transform="rotate(229.32 2.90 393.74)"/>
  <ellipse cx="778.02" cy="278.03" rx="117.87" ry="48.69" fill="#9d4a2a" opacity="0.30" transform="rotate(297.49 778.02 278.03)"/>
  <ellipse cx="897.12" cy="167.87" rx="88.72" ry="20.12" fill="#b8663a" opacity="0.46" transform="rotate(9.78 897.12 167.87)"/>
  <ellipse cx="116.36" cy="54.30" rx="77.98" ry="61.40" fill="#6f3023" opacity="0.36" transform="rotate(101.44 116.36 54.30)"/>
  <ellipse cx="290.75" cy="482.53" rx="143.80" ry="51.37" fill="#5d241a" opacity="0.27" transform="rotate(243.94 290.75 482.53)"/>
  <ellipse cx="529.15" cy="410.00" rx="79.73" ry="61.74" fill="#9d4a2a" opacity="0.50" transform="rotate(107.83 529.15 410.00)"/>
  <ellipse cx="199.90" cy="185.49" rx="93.84" ry="36.84" fill="#b8663a" opacity="0.30" transform="rotate(122.86 199.90 185.49)"/>
  <ellipse cx="264.98" cy="395.64" rx="54.18" ry="41.02" fill="#6f3023" opacity="0.33" transform="rotate(111.42 264.98 395.64)"/>
  <ellipse cx="773.58" cy="47.47" rx="43.55" ry="34.89" fill="#5d241a" opacity="0.45" transform="rotate(71.96 773.58 47.47)"/>
  <ellipse cx="458.86" cy="370.17" rx="87.25" ry="57.49" fill="#9d4a2a" opacity="0.40" transform="rotate(32.10 458.86 370.17)"/>
  <ellipse cx="518.92" cy="273.80" rx="136.09" ry="24.16" fill="#b8663a" opacity="0.41" transform="rotate(118.36 518.92 273.80)"/>
  <ellipse cx="935.82" cy="341.01" rx="26.50" ry="46.04" fill="#6f3023" opacity="0.29" transform="rotate(184.45 935.82 341.01)"/>
  <ellipse cx="751.33" cy="134.68" rx="89.59" ry="16.55" fill="#5d241a" opacity="0.46" transform="rotate(64.34 751.33 134.68)"/>
  <ellipse cx="935.67" cy="338.44" rx="113.87" ry="52.93" fill="#9d4a2a" opacity="0.32" transform="rotate(312.92 935.67 338.44)"/>
  <ellipse cx="365.68" cy="473.88" rx="108.11" ry="8.51" fill="#b8663a" opacity="0.45" transform="rotate(88.50 365.68 473.88)"/>
  <ellipse cx="710.66" cy="64.63" rx="53.00" ry="49.58" fill="#6f3023" opacity="0.33" transform="rotate(199.57 710.66 64.63)"/>
  <ellipse cx="48.51" cy="255.96" rx="91.44" ry="58.52" fill="#5d241a" opacity="0.35" transform="rotate(126.80 48.51 255.96)"/>
  <ellipse cx="204.17" cy="305.09" rx="119.36" ry="14.72" fill="#9d4a2a" opacity="0.33" transform="rotate(61.25 204.17 305.09)"/>
  <ellipse cx="491.20" cy="455.98" rx="125.17" ry="60.27" fill="#b8663a" opacity="0.25" transform="rotate(75.07 491.20 455.98)"/>
  <ellipse cx="490.38" cy="14.63" rx="73.24" ry="30.31" fill="#6f3023" opacity="0.49" transform="rotate(123.01 490.38 14.63)"/>
  <ellipse cx="924.18" cy="51.75" rx="107.43" ry="34.53" fill="#5d241a" opacity="0.48" transform="rotate(65.08 924.18 51.75)"/>
  <ellipse cx="599.00" cy="13.84" rx="129.09" ry="38.64" fill="#9d4a2a" opacity="0.39" transform="rotate(284.75 599.00 13.84)"/>
  <ellipse cx="452.09" cy="238.50" rx="131.73" ry="30.52" fill="#b8663a" opacity="0.36" transform="rotate(155.92 452.09 238.50)"/>
  <ellipse cx="12.91" cy="296.04" rx="99.50" ry="47.96" fill="#6f3023" opacity="0.39" transform="rotate(167.82 12.91 296.04)"/>
  <ellipse cx="829.97" cy="346.15" rx="127.41" ry="37.21" fill="#5d241a" opacity="0.28" transform="rotate(312.64 829.97 346.15)"/>
  <ellipse cx="998.87" cy="88.78" rx="35.52" ry="11.54" fill="#9d4a2a" opacity="0.28" transform="rotate(278.64 998.87 88.78)"/>
  <ellipse cx="360.50" cy="298.99" rx="162.14" ry="37.56" fill="#b8663a" opacity="0.37" transform="rotate(193.95 360.50 298.99)"/>
  <ellipse cx="67.23" cy="213.79" rx="130.29" ry="26.78" fill="#6f3023" opacity="0.35" transform="rotate(75.99 67.23 213.79)"/>

  <path d="M122.88 286.72 C 184.32 256, 225.28 245.76, 327.68 240.64" stroke="#e7c188" stroke-opacity="0.46" stroke-width="14.336" fill="none"/>
  <path d="M552.96 128 C 593.92 112.64, 696.32 133.12, 737.28 153.6" stroke="#f1dfc7" stroke-opacity="0.26" stroke-width="12.288" fill="none"/>

  <circle cx="592.09" cy="9.91" r="22.39" fill="none" stroke="#ead0b8" stroke-opacity="0.18" stroke-width="2.79"/>
  <circle cx="748.14" cy="48.28" r="16.57" fill="none" stroke="#ead0b8" stroke-opacity="0.33" stroke-width="4.09"/>
  <circle cx="964.48" cy="286.18" r="20.35" fill="none" stroke="#ead0b8" stroke-opacity="0.18" stroke-width="3.46"/>
  <circle cx="108.49" cy="467.31" r="9.23" fill="none" stroke="#ead0b8" stroke-opacity="0.19" stroke-width="1.19"/>
  <circle cx="373.58" cy="250.52" r="7.16" fill="none" stroke="#ead0b8" stroke-opacity="0.33" stroke-width="2.44"/>
  <circle cx="814.92" cy="50.41" r="20.29" fill="none" stroke="#ead0b8" stroke-opacity="0.38" stroke-width="3.07"/>
  <circle cx="244.90" cy="245.73" r="7.42" fill="none" stroke="#ead0b8" stroke-opacity="0.27" stroke-width="4.99"/>
  <circle cx="576.36" cy="441.18" r="20.79" fill="none" stroke="#ead0b8" stroke-opacity="0.36" stroke-width="4.55"/>
  <circle cx="141.44" cy="117.85" r="25.96" fill="none" stroke="#ead0b8" stroke-opacity="0.29" stroke-width="3.34"/>
  <circle cx="738.69" cy="64.19" r="10.23" fill="none" stroke="#ead0b8" stroke-opacity="0.34" stroke-width="1.16"/>
  <circle cx="759.63" cy="451.46" r="16.48" fill="none" stroke="#ead0b8" stroke-opacity="0.35" stroke-width="3.40"/>
  <circle cx="881.96" cy="42.85" r="8.23" fill="none" stroke="#ead0b8" stroke-opacity="0.20" stroke-width="2.13"/>
  <circle cx="663.95" cy="142.13" r="13.32" fill="none" stroke="#ead0b8" stroke-opacity="0.19" stroke-width="2.94"/>
  <circle cx="711.32" cy="305.41" r="21.10" fill="none" stroke="#ead0b8" stroke-opacity="0.18" stroke-width="3.09"/>
  <circle cx="252.30" cy="276.90" r="6.26" fill="none" stroke="#ead0b8" stroke-opacity="0.27" stroke-width="4.14"/>
  <circle cx="649.01" cy="396.82" r="16.68" fill="none" stroke="#ead0b8" stroke-opacity="0.19" stroke-width="4.96"/>
  <circle cx="549.28" cy="103.98" r="17.28" fill="none" stroke="#ead0b8" stroke-opacity="0.36" stroke-width="3.46"/>
  <circle cx="940.31" cy="162.53" r="21.20" fill="none" stroke="#ead0b8" stroke-opacity="0.26" stroke-width="1.39"/>
  <circle cx="137.47" cy="47.66" r="25.13" fill="none" stroke="#ead0b8" stroke-opacity="0.33" stroke-width="4.36"/>
  <circle cx="170.82" cy="218.64" r="18.83" fill="none" stroke="#ead0b8" stroke-opacity="0.22" stroke-width="2.56"/>
  <circle cx="233.84" cy="366.48" r="5.22" fill="none" stroke="#ead0b8" stroke-opacity="0.31" stroke-width="3.07"/>
  <circle cx="465.89" cy="283.63" r="20.13" fill="none" stroke="#ead0b8" stroke-opacity="0.25" stroke-width="3.72"/>
  <circle cx="63.47" cy="371.77" r="14.97" fill="none" stroke="#ead0b8" stroke-opacity="0.25" stroke-width="2.96"/>
  <circle cx="223.77" cy="155.13" r="21.64" fill="none" stroke="#ead0b8" stroke-opacity="0.26" stroke-width="2.24"/>
  <circle cx="131.58" cy="325.66" r="11.11" fill="none" stroke="#ead0b8" stroke-opacity="0.27" stroke-width="2.85"/>
  <circle cx="791.03" cy="363.80" r="5.79" fill="none" stroke="#ead0b8" stroke-opacity="0.18" stroke-width="1.44"/>
  <circle cx="788.18" cy="464.45" r="23.87" fill="none" stroke="#ead0b8" stroke-opacity="0.38" stroke-width="2.12"/>
  <circle cx="845.96" cy="140.98" r="24.12" fill="none" stroke="#ead0b8" stroke-opacity="0.27" stroke-width="1.25"/>
  <circle cx="832.27" cy="195.61" r="5.38" fill="none" stroke="#ead0b8" stroke-opacity="0.34" stroke-width="1.25"/>
  <circle cx="388.55" cy="353.00" r="18.31" fill="none" stroke="#ead0b8" stroke-opacity="0.33" stroke-width="1.79"/>
  <circle cx="343.87" cy="211.36" r="20.08" fill="none" stroke="#ead0b8" stroke-opacity="0.25" stroke-width="2.78"/>
  <circle cx="632.68" cy="371.93" r="9.14" fill="none" stroke="#ead0b8" stroke-opacity="0.34" stroke-width="2.67"/>
  <circle cx="180.88" cy="183.91" r="27.00" fill="none" stroke="#ead0b8" stroke-opacity="0.30" stroke-width="1.08"/>
  <circle cx="197.15" cy="132.55" r="9.32" fill="none" stroke="#ead0b8" stroke-opacity="0.17" stroke-width="3.36"/>
  <circle cx="467.01" cy="90.42" r="16.35" fill="none" stroke="#ead0b8" stroke-opacity="0.28" stroke-width="1.14"/>
  <circle cx="405.08" cy="238.44" r="4.65" fill="none" stroke="#ead0b8" stroke-opacity="0.19" stroke-width="3.26"/>
  <circle cx="757.81" cy="457.75" r="23.01" fill="none" stroke="#ead0b8" stroke-opacity="0.16" stroke-width="2.48"/>
  <circle cx="538.50" cy="3.95" r="11.77" fill="none" stroke="#ead0b8" stroke-opacity="0.38" stroke-width="3.31"/>
  <circle cx="589.04" cy="368.07" r="17.13" fill="none" stroke="#ead0b8" stroke-opacity="0.27" stroke-width="2.75"/>
  <circle cx="3.61" cy="443.82" r="26.13" fill="none" stroke="#ead0b8" stroke-opacity="0.29" stroke-width="2.30"/>
  <circle cx="576.29" cy="308.40" r="24.69" fill="none" stroke="#ead0b8" stroke-opacity="0.38" stroke-width="1.09"/>
  <circle cx="863.30" cy="366.35" r="25.40" fill="none" stroke="#ead0b8" stroke-opacity="0.16" stroke-width="2.00"/>
  <circle cx="972.26" cy="90.06" r="24.16" fill="none" stroke="#ead0b8" stroke-opacity="0.29" stroke-width="3.33"/>
  <circle cx="766.70" cy="346.89" r="25.30" fill="none" stroke="#ead0b8" stroke-opacity="0.36" stroke-width="1.32"/>
  <circle cx="484.60" cy="170.27" r="15.89" fill="none" stroke="#ead0b8" stroke-opacity="0.26" stroke-width="2.93"/>
  <circle cx="678.30" cy="110.44" r="27.99" fill="none" stroke="#ead0b8" stroke-opacity="0.36" stroke-width="3.47"/>
  <circle cx="990.56" cy="98.73" r="9.73" fill="none" stroke="#ead0b8" stroke-opacity="0.18" stroke-width="2.68"/>
  <circle cx="910.23" cy="105.17" r="27.94" fill="none" stroke="#ead0b8" stroke-opacity="0.29" stroke-width="2.04"/>
  <circle cx="577.47" cy="38.45" r="7.63" fill="none" stroke="#ead0b8" stroke-opacity="0.28" stroke-width="4.90"/>
  <circle cx="262.42" cy="40.82" r="16.74" fill="none" stroke="#ead0b8" stroke-opacity="0.34" stroke-width="3.53"/>
  <circle cx="315.30" cy="100.77" r="29.10" fill="none" stroke="#ead0b8" stroke-opacity="0.33" stroke-width="3.07"/>
  <circle cx="976.15" cy="426.49" r="10.14" fill="none" stroke="#ead0b8" stroke-opacity="0.16" stroke-width="2.43"/>
  <circle cx="160.33" cy="244.71" r="20.17" fill="none" stroke="#ead0b8" stroke-opacity="0.22" stroke-width="2.82"/>
  <circle cx="35.77" cy="358.96" r="16.15" fill="none" stroke="#ead0b8" stroke-opacity="0.38" stroke-width="1.77"/>
  <circle cx="782.08" cy="417.56" r="10.21" fill="none" stroke="#ead0b8" stroke-opacity="0.30" stroke-width="4.25"/>
  <circle cx="934.03" cy="33.16" r="15.51" fill="none" stroke="#ead0b8" stroke-opacity="0.33" stroke-width="3.88"/>
  <circle cx="706.65" cy="440.06" r="12.79" fill="none" stroke="#ead0b8" stroke-opacity="0.30" stroke-width="1.60"/>
  <circle cx="773.76" cy="310.59" r="20.84" fill="none" stroke="#ead0b8" stroke-opacity="0.32" stroke-width="3.27"/>
  <circle cx="826.57" cy="233.87" r="19.38" fill="none" stroke="#ead0b8" stroke-opacity="0.34" stroke-width="4.56"/>
  <circle cx="471.58" cy="286.64" r="24.47" fill="none" stroke="#ead0b8" stroke-opacity="0.29" stroke-width="3.79"/>
  <circle cx="240.26" cy="439.76" r="13.10" fill="none" stroke="#ead0b8" stroke-opacity="0.30" stroke-width="3.54"/>
  <circle cx="970.09" cy="37.56" r="27.25" fill="none" stroke="#ead0b8" stroke-opacity="0.26" stroke-width="4.48"/>
  <circle cx="233.31" cy="161.20" r="16.25" fill="none" stroke="#ead0b8" stroke-opacity="0.15" stroke-width="2.39"/>
  <circle cx="954.29" cy="436.71" r="14.20" fill="none" stroke="#ead0b8" stroke-opacity="0.24" stroke-width="4.38"/>
  <circle cx="598.62" cy="58.86" r="12.51" fill="none" stroke="#ead0b8" stroke-opacity="0.30" stroke-width="3.54"/>
  <circle cx="196.88" cy="194.32" r="7.59" fill="none" stroke="#ead0b8" stroke-opacity="0.33" stroke-width="2.78"/>
  <circle cx="429.55" cy="163.56" r="11.92" fill="none" stroke="#ead0b8" stroke-opacity="0.40" stroke-width="1.28"/>
  <circle cx="621.94" cy="367.08" r="14.49" fill="none" stroke="#ead0b8" stroke-opacity="0.16" stroke-width="1.92"/>
  <circle cx="137.21" cy="314.25" r="20.38" fill="none" stroke="#ead0b8" stroke-opacity="0.31" stroke-width="4.93"/>
  <circle cx="157.72" cy="136.78" r="18.14" fill="none" stroke="#ead0b8" stroke-opacity="0.17" stroke-width="2.38"/>
  <circle cx="148.03" cy="405.70" r="14.76" fill="none" stroke="#ead0b8" stroke-opacity="0.25" stroke-width="2.99"/>
  <circle cx="446.15" cy="189.56" r="22.33" fill="none" stroke="#ead0b8" stroke-opacity="0.40" stroke-width="1.45"/>
  <circle cx="1010.74" cy="305.16" r="9.95" fill="none" stroke="#ead0b8" stroke-opacity="0.35" stroke-width="2.86"/>
  <circle cx="505.67" cy="227.72" r="26.59" fill="none" stroke="#ead0b8" stroke-opacity="0.36" stroke-width="2.14"/>
  <circle cx="874.81" cy="423.95" r="24.98" fill="none" stroke="#ead0b8" stroke-opacity="0.17" stroke-width="1.86"/>
  <circle cx="440.99" cy="502.77" r="28.50" fill="none" stroke="#ead0b8" stroke-opacity="0.29" stroke-width="3.01"/>
  <circle cx="7.57" cy="84.20" r="7.70" fill="none" stroke="#ead0b8" stroke-opacity="0.33" stroke-width="2.97"/>
  <circle cx="66.43" cy="106.72" r="21.93" fill="none" stroke="#ead0b8" stroke-opacity="0.29" stroke-width="3.66"/>
  <circle cx="914.08" cy="339.49" r="12.89" fill="none" stroke="#ead0b8" stroke-opacity="0.26" stroke-width="2.78"/>
  <circle cx="266.52" cy="91.21" r="5.95" fill="none" stroke="#ead0b8" stroke-opacity="0.34" stroke-width="2.38"/>
  <circle cx="776.92" cy="502.90" r="20.97" fill="none" stroke="#ead0b8" stroke-opacity="0.36" stroke-width="4.19"/>
  <circle cx="26.32" cy="260.52" r="29.54" fill="none" stroke="#ead0b8" stroke-opacity="0.18" stroke-width="3.55"/>
  <circle cx="165.97" cy="282.08" r="26.78" fill="none" stroke="#ead0b8" stroke-opacity="0.21" stroke-width="2.05"/>
  <circle cx="813.32" cy="256.99" r="23.81" fill="none" stroke="#ead0b8" stroke-opacity="0.24" stroke-width="2.59"/>
  <circle cx="553.28" cy="359.75" r="16.94" fill="none" stroke="#ead0b8" stroke-opacity="0.28" stroke-width="3.54"/>
  <circle cx="781.34" cy="22.00" r="19.31" fill="none" stroke="#ead0b8" stroke-opacity="0.16" stroke-width="2.11"/>
  <circle cx="81.36" cy="464.42" r="19.54" fill="none" stroke="#ead0b8" stroke-opacity="0.40" stroke-width="3.49"/>
  <circle cx="640.13" cy="15.95" r="16.91" fill="none" stroke="#ead0b8" stroke-opacity="0.23" stroke-width="1.04"/>
  <circle cx="993.65" cy="10.70" r="19.12" fill="none" stroke="#ead0b8" stroke-opacity="0.19" stroke-width="1.61"/>
  <circle cx="783.31" cy="101.49" r="7.89" fill="none" stroke="#ead0b8" stroke-opacity="0.28" stroke-width="2.17"/>
  <circle cx="921.70" cy="378.87" r="13.81" fill="none" stroke="#ead0b8" stroke-opacity="0.35" stroke-width="3.05"/>
  <circle cx="848.32" cy="310.31" r="27.15" fill="none" stroke="#ead0b8" stroke-opacity="0.28" stroke-width="2.41"/>
  <circle cx="839.86" cy="250.22" r="9.61" fill="none" stroke="#ead0b8" stroke-opacity="0.25" stroke-width="4.62"/>
  <circle cx="854.85" cy="474.77" r="22.57" fill="none" stroke="#ead0b8" stroke-opacity="0.18" stroke-width="4.62"/>
  <circle cx="755.82" cy="324.77" r="28.33" fill="none" stroke="#ead0b8" stroke-opacity="0.27" stroke-width="4.29"/>
  <circle cx="489.53" cy="189.84" r="24.53" fill="none" stroke="#ead0b8" stroke-opacity="0.25" stroke-width="4.44"/>
  <circle cx="53.95" cy="246.82" r="23.17" fill="none" stroke="#ead0b8" stroke-opacity="0.18" stroke-width="3.90"/>
  <circle cx="293.48" cy="451.41" r="10.56" fill="none" stroke="#ead0b8" stroke-opacity="0.37" stroke-width="4.15"/>
  <circle cx="881.75" cy="410.17" r="13.84" fill="none" stroke="#ead0b8" stroke-opacity="0.38" stroke-width="4.03"/>
  <circle cx="698.20" cy="297.53" r="8.75" fill="none" stroke="#ead0b8" stroke-opacity="0.34" stroke-width="4.55"/>
  <circle cx="274.38" cy="493.09" r="6.36" fill="none" stroke="#ead0b8" stroke-opacity="0.27" stroke-width="2.55"/>
  <circle cx="12.67" cy="195.71" r="14.00" fill="none" stroke="#ead0b8" stroke-opacity="0.21" stroke-width="1.80"/>
  <circle cx="89.50" cy="492.18" r="27.93" fill="none" stroke="#ead0b8" stroke-opacity="0.21" stroke-width="4.43"/>
  <circle cx="157.10" cy="451.73" r="24.05" fill="none" stroke="#ead0b8" stroke-opacity="0.36" stroke-width="4.46"/>
  <circle cx="9.43" cy="474.20" r="19.68" fill="none" stroke="#ead0b8" stroke-opacity="0.38" stroke-width="4.03"/>
  <circle cx="575.94" cy="28.11" r="15.89" fill="none" stroke="#ead0b8" stroke-opacity="0.39" stroke-width="3.94"/>
  <circle cx="372.92" cy="39.71" r="13.79" fill="none" stroke="#ead0b8" stroke-opacity="0.33" stroke-width="4.92"/>
  <circle cx="599.96" cy="260.79" r="7.54" fill="none" stroke="#ead0b8" stroke-opacity="0.22" stroke-width="2.81"/>
  <circle cx="647.47" cy="342.97" r="10.36" fill="none" stroke="#ead0b8" stroke-opacity="0.26" stroke-width="2.69"/>
  <circle cx="643.85" cy="107.06" r="20.44" fill="none" stroke="#ead0b8" stroke-opacity="0.35" stroke-width="2.00"/>
  <circle cx="874.48" cy="102.74" r="13.86" fill="none" stroke="#ead0b8" stroke-opacity="0.25" stroke-width="4.17"/>
  <circle cx="350.99" cy="58.25" r="12.24" fill="none" stroke="#ead0b8" stroke-opacity="0.21" stroke-width="2.86"/>
  <circle cx="708.27" cy="145.39" r="28.11" fill="none" stroke="#ead0b8" stroke-opacity="0.26" stroke-width="4.83"/>
  <circle cx="586.13" cy="147.45" r="16.56" fill="none" stroke="#ead0b8" stroke-opacity="0.26" stroke-width="4.92"/>
  <circle cx="111.10" cy="484.14" r="17.13" fill="none" stroke="#ead0b8" stroke-opacity="0.33" stroke-width="3.49"/>
  <circle cx="237.45" cy="86.48" r="21.26" fill="none" stroke="#ead0b8" stroke-opacity="0.35" stroke-width="3.36"/>
  <circle cx="47.33" cy="508.65" r="22.00" fill="none" stroke="#ead0b8" stroke-opacity="0.21" stroke-width="2.25"/>
  <circle cx="906.72" cy="495.54" r="16.45" fill="none" stroke="#ead0b8" stroke-opacity="0.34" stroke-width="4.44"/>
  <circle cx="160.92" cy="185.92" r="27.56" fill="none" stroke="#ead0b8" stroke-opacity="0.33" stroke-width="3.95"/>
  <circle cx="387.20" cy="80.82" r="9.50" fill="none" stroke="#ead0b8" stroke-opacity="0.19" stroke-width="1.57"/>
  <rect width="100%" height="100%" filter="url(#noise)" opacity="0.7"/>
</svg>
