<?xml version="1.0" encoding="UTF-8"?>
<svg xmlns="http://www.w3.org/2000/svg" width="4096" height="2048" viewBox="0 0 4096 2048" preserveAspectRatio="none" aria-label="mars roughness texture">
  <defs>
    <linearGradient id="rough" x1="0" y1="0" x2="1" y2="1">
      <stop offset="0%" stop-color="#595959"/>
      <stop offset="100%" stop-color="#efefef"/>
    </linearGradient>
  </defs>
  <rect width="100%" height="100%" fill="url(#rough)"/>
  <circle cx="1795.03" cy="803.50" r="49.96" fill="none" stroke="#ffffff" stroke-opacity="0.28" stroke-width="3.43"/>
  <circle cx="2436.35" cy="442.08" r="116.46" fill="none" stroke="#ffffff" stroke-opacity="0.30" stroke-width="1.01"/>
  <circle cx="859.22" cy="1501.24" r="100.79" fill="none" stroke="#ffffff" stroke-opacity="0.31" stroke-width="3.87"/>
  <circle cx="2243.83" cy="1426.36" r="34.31" fill="none" stroke="#ffffff" stroke-opacity="0.16" stroke-width="1.12"/>
  <circle cx="2995.00" cy="868.79" r="67.80" fill="none" stroke="#ffffff" stroke-opacity="0.19" stroke-width="1.92"/>
  <circle cx="1222.14" cy="1616.23" r="22.81" fill="none" stroke="#ffffff" stroke-opacity="0.36" stroke-width="4.52"/>
  <circle cx="3757.83" cy="452.66" r="116.41" fill="none" stroke="#ffffff" stroke-opacity="0.22" stroke-width="1.31"/>
  <circle cx="1867.18" cy="2020.15" r="58.14" fill="none" stroke="#ffffff" stroke-opacity="0.40" stroke-width="2.45"/>
  <circle cx="2786.73" cy="1352.05" r="17.60" fill="none" stroke="#ffffff" stroke-opacity="0.17" stroke-width="3.08"/>
  <circle cx="1956.97" cy="1895.18" r="63.90" fill="none" stroke="#ffffff" stroke-opacity="0.27" stroke-width="1.38"/>
  <circle cx="113.12" cy="608.81" r="65.73" fill="none" stroke="#ffffff" stroke-opacity="0.34" stroke-width="1.20"/>
  <circle cx="3104.71" cy="171.56" r="84.13" fill="none" stroke="#ffffff" stroke-opacity="0.19" stroke-width="2.86"/>
  <circle cx="1846.62" cy="1810.59" r="107.67" fill="none" stroke="#ffffff" stroke-opacity="0.40" stroke-width="4.88"/>
  <circle cx="2139.26" cy="1400.39" r="42.04" fill="none" stroke="#ffffff" stroke-opacity="0.22" stroke-width="3.37"/>
  <circle cx="2840.05" cy="1227.69" r="28.05" fill="none" stroke="#ffffff" stroke-opacity="0.21" stroke-width="4.43"/>
  <circle cx="793.87" cy="1231.80" r="87.04" fill="none" stroke="#ffffff" stroke-opacity="0.20" stroke-width="1.35"/>
  <circle cx="3012.27" cy="1349.52" r="43.44" fill="none" stroke="#ffffff" stroke-opacity="0.22" stroke-width="1.78"/>
  <circle cx="1507.32" cy="1608.64" r="45.05" fill="none" stroke="#ffffff" stroke-opacity="0.35" stroke-width="2.13"/>
  <circle cx="1003.40" cy="969.19" r="27.28" fill="none" stroke="#ffffff" stroke-opacity="0.20" stroke-width="4.24"/>
  <circle cx="3162.16" cy="511.21" r="47.60" fill="none" stroke="#ffffff" stroke-opacity="0.34" stroke-width="3.36"/>
  <circle cx="2584.72" cy="1158.39" r="58.59" fill="none" stroke="#ffffff" stroke-opacity="0.25" stroke-width="2.07"/>
  <circle cx="572.59" cy="874.09" r="105.29" fill="none" stroke="#ffffff" stroke-opacity="0.17" stroke-width="4.63"/>
  <circle cx="2098.04" cy="1548.71" r="22.81" fill="none" stroke="#ffffff" stroke-opacity="0.28" stroke-width="1.62"/>
  <circle cx="3570.30" cy="762.34" r="36.62" fill="none" stroke="#ffffff" stroke-opacity="0.19" stroke-width="4.26"/>
  <circle cx="2834.72" cy="489.84" r="90.04" fill="none" stroke="#ffffff" stroke-opacity="0.24" stroke-width="2.73"/>
  <circle cx="948.92" cy="600.46" r="73.90" fill="none" stroke="#ffffff" stroke-opacity="0.30" stroke-width="2.02"/>
  <circle cx="3789.17" cy="368.76" r="57.68" fill="none" stroke="#ffffff" stroke-opacity="0.24" stroke-width="3.10"/>
  <circle cx="2979.54" cy="1993.11" r="79.87" fill="none" stroke="#ffffff" stroke-opacity="0.39" stroke-width="2.45"/>
  <circle cx="2768.98" cy="1856.19" r="80.48" fill="none" stroke="#ffffff" stroke-opacity="0.29" stroke-width="4.83"/>
  <circle cx="3189.78" cy="335.13" r="25.64" fill="none" stroke="#ffffff" stroke-opacity="0.33" stroke-width="4.54"/>
  <circle cx="136.56" cy="1472.63" r="79.20" fill="none" stroke="#ffffff" stroke-opacity="0.28" stroke-width="4.57"/>
  <circle cx="3590.92" cy="1529.88" r="80.74" fill="none" stroke="#ffffff" stroke-opacity="0.35" stroke-width="1.34"/>
  <circle cx="3060.41" cy="772.10" r="117.52" fill="none" stroke="#ffffff" stroke-opacity="0.34" stroke-width="1.61"/>
  <circle cx="2965.56" cy="1529.27" r="101.28" fill="none" stroke="#ffffff" stroke-opacity="0.28" stroke-width="4.40"/>
  <circle cx="1374.82" cy="948.00" r="99.35" fill="none" stroke="#ffffff" stroke-opacity="0.30" stroke-width="1.63"/>
  <circle cx="1624.46" cy="1802.66" r="102.97" fill="none" stroke="#ffffff" stroke-opacity="0.36" stroke-width="4.59"/>
  <circle cx="630.36" cy="1419.16" r="65.28" fill="none" stroke="#ffffff" stroke-opacity="0.30" stroke-width="4.25"/>
  <circle cx="3820.77" cy="1307.97" r="51.87" fill="none" stroke="#ffffff" stroke-opacity="0.17" stroke-width="1.44"/>
  <circle cx="2289.63" cy="1724.52" r="56.40" fill="none" stroke="#ffffff" stroke-opacity="0.17" stroke-width="4.04"/>
  <circle cx="38.47" cy="1308.15" r="112.63" fill="none" stroke="#ffffff" stroke-opacity="0.18" stroke-width="1.82"/>
  <circle cx="2642.89" cy="1816.52" r="110.91" fill="none" stroke="#ffffff" stroke-opacity="0.27" stroke-width="3.43"/>
  <circle cx="239.30" cy="1114.33" r="105.39" fill="none" stroke="#ffffff" stroke-opacity="0.21" stroke-width="3.30"/>
  <circle cx="3189.99" cy="581.52" r="96.30" fill="none" stroke="#ffffff" stroke-opacity="0.28" stroke-width="4.88"/>
  <circle cx="1572.76" cy="14.90" r="45.15" fill="none" stroke="#ffffff" stroke-opacity="0.25" stroke-width="3.28"/>
  <circle cx="583.04" cy="1137.55" r="89.97" fill="none" stroke="#ffffff" stroke-opacity="0.17" stroke-width="1.68"/>
  <circle cx="457.70" cy="307.66" r="91.89" fill="none" stroke="#ffffff" stroke-opacity="0.36" stroke-width="1.00"/>
  <circle cx="84.49" cy="1285.55" r="72.08" fill="none" stroke="#ffffff" stroke-opacity="0.32" stroke-width="3.91"/>
  <circle cx="867.92" cy="1834.47" r="64.27" fill="none" stroke="#ffffff" stroke-opacity="0.16" stroke-width="2.54"/>
  <circle cx="1763.00" cy="404.42" r="88.37" fill="none" stroke="#ffffff" stroke-opacity="0.22" stroke-width="4.67"/>
  <circle cx="3842.41" cy="603.52" r="35.25" fill="none" stroke="#ffffff" stroke-opacity="0.24" stroke-width="1.76"/>
  <circle cx="957.56" cy="1794.06" r="55.09" fill="none" stroke="#ffffff" stroke-opacity="0.40" stroke-width="1.78"/>
  <circle cx="3628.55" cy="1390.50" r="86.77" fill="none" stroke="#ffffff" stroke-opacity="0.19" stroke-width="3.77"/>
  <circle cx="3632.47" cy="1072.76" r="31.15" fill="none" stroke="#ffffff" stroke-opacity="0.18" stroke-width="4.45"/>
  <circle cx="222.99" cy="651.91" r="17.69" fill="none" stroke="#ffffff" stroke-opacity="0.20" stroke-width="1.68"/>
  <circle cx="3185.67" cy="229.02" r="92.97" fill="none" stroke="#ffffff" stroke-opacity="0.23" stroke-width="2.52"/>
  <circle cx="3518.51" cy="173.84" r="27.37" fill="none" stroke="#ffffff" stroke-opacity="0.29" stroke-width="2.73"/>
  <circle cx="2092.80" cy="386.26" r="90.20" fill="none" stroke="#ffffff" stroke-opacity="0.18" stroke-width="4.66"/>
  <circle cx="2253.43" cy="1521.34" r="16.49" fill="none" stroke="#ffffff" stroke-opacity="0.27" stroke-width="2.45"/>
  <circle cx="3325.65" cy="1348.49" r="35.49" fill="none" stroke="#ffffff" stroke-opacity="0.34" stroke-width="3.08"/>
  <circle cx="52.18" cy="1427.73" r="93.19" fill="none" stroke="#ffffff" stroke-opacity="0.36" stroke-width="3.90"/>
  <circle cx="3159.34" cy="1325.31" r="82.06" fill="none" stroke="#ffffff" stroke-opacity="0.39" stroke-width="2.90"/>
  <circle cx="17.32" cy="1361.02" r="27.97" fill="none" stroke="#ffffff" stroke-opacity="0.15" stroke-width="4.45"/>
  <circle cx="938.91" cy="1660.35" r="69.52" fill="none" stroke="#ffffff" stroke-opacity="0.33" stroke-width="1.23"/>
  <circle cx="2505.70" cy="1202.85" r="73.63" fill="none" stroke="#ffffff" stroke-opacity="0.39" stroke-width="1.03"/>
  <circle cx="147.62" cy="189.62" r="46.23" fill="none" stroke="#ffffff" stroke-opacity="0.26" stroke-width="2.20"/>
  <circle cx="2549.16" cy="1032.92" r="102.75" fill="none" stroke="#ffffff" stroke-opacity="0.30" stroke-width="2.52"/>
  <circle cx="99.66" cy="1465.80" r="70.64" fill="none" stroke="#ffffff" stroke-opacity="0.28" stroke-width="2.58"/>
  <circle cx="2760.24" cy="1726.50" r="78.27" fill="none" stroke="#ffffff" stroke-opacity="0.27" stroke-width="1.33"/>
  <circle cx="2463.61" cy="1382.84" r="21.57" fill="none" stroke="#ffffff" stroke-opacity="0.22" stroke-width="4.67"/>
  <circle cx="191.58" cy="9.94" r="44.35" fill="none" stroke="#ffffff" stroke-opacity="0.38" stroke-width="2.80"/>
  <circle cx="971.22" cy="473.09" r="102.41" fill="none" stroke="#ffffff" stroke-opacity="0.21" stroke-width="4.22"/>
  <circle cx="3413.23" cy="13.71" r="81.30" fill="none" stroke="#ffffff" stroke-opacity="0.35" stroke-width="2.82"/>
  <circle cx="2398.02" cy="935.21" r="33.61" fill="none" stroke="#ffffff" stroke-opacity="0.37" stroke-width="1.49"/>
  <circle cx="2220.62" cy="1260.02" r="84.66" fill="none" stroke="#ffffff" stroke-opacity="0.16" stroke-width="4.72"/>
  <circle cx="3530.22" cy="1717.09" r="16.87" fill="none" stroke="#ffffff" stroke-opacity="0.31" stroke-width="1.52"/>
  <circle cx="101.60" cy="1416.36" r="59.69" fill="none" stroke="#ffffff" stroke-opacity="0.38" stroke-width="2.91"/>
  <circle cx="820.47" cy="1644.13" r="102.38" fill="none" stroke="#ffffff" stroke-opacity="0.34" stroke-width="2.15"/>
  <circle cx="2090.95" cy="1340.24" r="86.74" fill="none" stroke="#ffffff" stroke-opacity="0.22" stroke-width="4.91"/>
  <circle cx="1486.87" cy="1928.93" r="26.85" fill="none" stroke="#ffffff" stroke-opacity="0.24" stroke-width="1.62"/>
  <circle cx="2325.07" cy="1822.28" r="80.18" fill="none" stroke="#ffffff" stroke-opacity="0.33" stroke-width="1.73"/>
  <circle cx="701.82" cy="344.85" r="105.85" fill="none" stroke="#ffffff" stroke-opacity="0.27" stroke-width="3.18"/>
  <circle cx="2205.12" cy="1829.00" r="73.28" fill="none" stroke="#ffffff" stroke-opacity="0.22" stroke-width="4.71"/>
  <circle cx="2817.20" cy="259.61" r="49.89" fill="none" stroke="#ffffff" stroke-opacity="0.24" stroke-width="4.33"/>
  <circle cx="1953.35" cy="1512.45" r="23.22" fill="none" stroke="#ffffff" stroke-opacity="0.20" stroke-width="4.36"/>
  <circle cx="1296.36" cy="975.07" r="76.82" fill="none" stroke="#ffffff" stroke-opacity="0.32" stroke-width="1.26"/>
  <circle cx="1758.84" cy="912.10" r="91.98" fill="none" stroke="#ffffff" stroke-opacity="0.37" stroke-width="4.21"/>
  <circle cx="3755.35" cy="429.66" r="52.70" fill="none" stroke="#ffffff" stroke-opacity="0.37" stroke-width="3.76"/>
  <circle cx="329.44" cy="1556.04" r="91.02" fill="none" stroke="#ffffff" stroke-opacity="0.17" stroke-width="3.43"/>
  <circle cx="2264.09" cy="1113.52" r="102.56" fill="none" stroke="#ffffff" stroke-opacity="0.31" stroke-width="4.86"/>
  <circle cx="3790.20" cy="226.88" r="117.05" fill="none" stroke="#ffffff" stroke-opacity="0.28" stroke-width="2.67"/>
  <circle cx="3861.75" cy="320.72" r="66.56" fill="none" stroke="#ffffff" stroke-opacity="0.30" stroke-width="1.53"/>
  <circle cx="1104.85" cy="1719.57" r="98.06" fill="none" stroke="#ffffff" stroke-opacity="0.17" stroke-width="4.22"/>
  <circle cx="3460.97" cy="536.67" r="46.65" fill="none" stroke="#ffffff" stroke-opacity="0.28" stroke-width="3.48"/>
  <circle cx="280.92" cy="1140.34" r="97.18" fill="none" stroke="#ffffff" stroke-opacity="0.25" stroke-width="2.01"/>
  <circle cx="3351.43" cy="401.20" r="105.52" fill="none" stroke="#ffffff" stroke-opacity="0.19" stroke-width="2.79"/>
  <circle cx="3942.83" cy="946.07" r="73.74" fill="none" stroke="#ffffff" stroke-opacity="0.25" stroke-width="3.71"/>
  <circle cx="3533.16" cy="977.29" r="54.49" fill="none" stroke="#ffffff" stroke-opacity="0.28" stroke-width="2.58"/>
  <circle cx="1677.63" cy="2013.29" r="81.23" fill="none" stroke="#ffffff" stroke-opacity="0.21" stroke-width="3.21"/>
  <circle cx="2714.24" cy="1449.90" r="40.38" fill="none" stroke="#ffffff" stroke-opacity="0.23" stroke-width="3.95"/>
  <circle cx="2481.69" cy="1972.13" r="21.89" fill="none" stroke="#ffffff" stroke-opacity="0.35" stroke-width="3.92"/>
  <circle cx="1475.26" cy="1597.09" r="64.87" fill="none" stroke="#ffffff" stroke-opacity="0.30" stroke-width="1.09"/>
  <circle cx="2097.09" cy="322.41" r="71.20" fill="none" stroke="#ffffff" stroke-opacity="0.37" stroke-width="2.55"/>
  <circle cx="1107.12" cy="1465.61" r="18.74" fill="none" stroke="#ffffff" stroke-opacity="0.29" stroke-width="1.46"/>
  <circle cx="3261.96" cy="1683.10" r="86.81" fill="none" stroke="#ffffff" stroke-opacity="0.27" stroke-width="4.69"/>
  <circle cx="2240.59" cy="1341.36" r="57.33" fill="none" stroke="#ffffff" stroke-opacity="0.38" stroke-width="1.82"/>
  <circle cx="1879.46" cy="1976.47" r="96.90" fill="none" stroke="#ffffff" stroke-opacity="0.23" stroke-width="3.38"/>
  <circle cx="3310.31" cy="114.78" r="101.57" fill="none" stroke="#ffffff" stroke-opacity="0.31" stroke-width="4.20"/>
  <circle cx="1425.73" cy="518.16" r="45.81" fill="none" stroke="#ffffff" stroke-opacity="0.20" stroke-width="2.31"/>
  <circle cx="3939.42" cy="1423.59" r="25.50" fill="none" stroke="#ffffff" stroke-opacity="0.16" stroke-width="1.65"/>
  <circle cx="1281.52" cy="1762.37" r="110.76" fill="none" stroke="#ffffff" stroke-opacity="0.34" stroke-width="4.21"/>
  <circle cx="1007.66" cy="1149.07" r="65.07" fill="none" stroke="#ffffff" stroke-opacity="0.39" stroke-width="1.24"/>
  <circle cx="1571.81" cy="1261.48" r="43.45" fill="none" stroke="#ffffff" stroke-opacity="0.28" stroke-width="1.42"/>
  <circle cx="2529.21" cy="1700.07" r="23.89" fill="none" stroke="#ffffff" stroke-opacity="0.38" stroke-width="1.59"/>
  <circle cx="3005.97" cy="1769.31" r="43.51" fill="none" stroke="#ffffff" stroke-opacity="0.22" stroke-width="1.10"/>
  <circle cx="1670.84" cy="1689.08" r="34.98" fill="none" stroke="#ffffff" stroke-opacity="0.38" stroke-width="1.29"/>
  <circle cx="1143.06" cy="835.32" r="105.02" fill="none" stroke="#ffffff" stroke-opacity="0.24" stroke-width="4.24"/>
  <circle cx="1772.89" cy="1590.57" r="46.21" fill="none" stroke="#ffffff" stroke-opacity="0.21" stroke-width="1.82"/>
  <circle cx="846.63" cy="2030.91" r="79.92" fill="none" stroke="#ffffff" stroke-opacity="0.16" stroke-width="2.95"/>
  <circle cx="3223.58" cy="789.88" r="86.31" fill="none" stroke="#ffffff" stroke-opacity="0.22" stroke-width="1.59"/>
  <circle cx="2201.60" cy="1751.18" r="88.64" fill="none" stroke="#ffffff" stroke-opacity="0.17" stroke-width="2.68"/>
</svg>
