<?xml version="1.0" encoding="UTF-8"?>
<svg xmlns="http://www.w3.org/2000/svg" width="4096" height="2048" viewBox="0 0 4096 2048" preserveAspectRatio="none" aria-label="earth texture">
  <defs>
    <linearGradient id="ocean" x1="0" y1="0" x2="0" y2="1">
      <stop offset="0%" stop-color="#0d5db8"/>
      <stop offset="50%" stop-color="#1074c8"/>
      <stop offset="100%" stop-color="#0a437f"/>
    </linearGradient>
  </defs>
  <rect width="100%" height="100%" fill="url(#ocean)"/>
  <g transform="scale(4 4)">

  <path d="M110 180 C140 120 220 110 280 140 C330 165 360 225 338 280 C310 350 210 355 155 312 C115 280 92 230 110 180 Z" fill="#587a3a" opacity="0.92"/>
  <path d="M360 120 C430 80 520 88 586 130 C642 168 666 220 640 278 C612 338 530 352 462 316 C395 280 346 196 360 120 Z" fill="#7d8b46" opacity="0.9"/>
  <path d="M706 188 C756 148 838 144 902 180 C948 204 972 248 960 300 C944 364 870 396 804 374 C742 354 690 302 692 246 C693 223 700 205 706 188 Z" fill="#8c7741" opacity="0.88"/>
  <path d="M758 70 C794 48 846 50 888 74 C926 96 948 128 944 158 C936 200 884 226 834 214 C776 200 734 158 736 116 C736 98 744 82 758 70 Z" fill="#5d7840" opacity="0.84"/>
  </g>
  <ellipse cx="409.6" cy="163.84" rx="327.68" ry="102.4" fill="#eef6ff" opacity="0.95"/>
  <ellipse cx="3604.48" cy="1843.2" rx="368.64" ry="122.88" fill="#eef6ff" opacity="0.92"/>
</svg>
