<?xml version="1.0" encoding="UTF-8"?>
<svg xmlns="http://www.w3.org/2000/svg" width="2048" height="1024" viewBox="0 0 2048 1024" preserveAspectRatio="none" aria-label="uranus texture">
  <defs>
    <filter id="mist">
      <feTurbulence type="fractalNoise" baseFrequency="0.6 0.02" numOctaves="3" seed="1"/>
      <feColorMatrix type="saturate" values="0"/>
      <feComponentTransfer>
        <feFuncA type="table" tableValues="0 0.12"/>
      </feComponentTransfer>
    </filter>
  </defs>
  <rect x="0" y="0.00" width="2048" height="205.80" fill="#a4eef5"/>
  <rect x="0" y="204.80" width="2048" height="205.80" fill="#8adce6"/>
  <rect x="0" y="409.60" width="2048" height="205.80" fill="#9beaf0"/>
  <rect x="0" y="614.40" width="2048" height="205.80" fill="#7fd5e3"/>
  <rect x="0" y="819.20" width="2048" height="205.80" fill="#a3f1f4"/>
  <path d="M 0 448.48 C 368.64 463.66 860.16 433.31 2048 448.48" stroke="#a4eef5" stroke-width="10.60" stroke-opacity="0.09" fill="none"/>
  <path d="M 0 413.58 C 368.64 417.71 860.16 409.46 2048 413.58" stroke="#8adce6" stroke-width="6.80" stroke-opacity="0.23" fill="none"/>
  <path d="M 0 998.97 C 368.64 1020.98 860.16 976.95 2048 998.97" stroke="#9beaf0" stroke-width="13.72" stroke-opacity="0.18" fill="none"/>
  <path d="M 0 234.78 C 368.64 256.00 860.16 213.57 2048 234.78" stroke="#7fd5e3" stroke-width="11.98" stroke-opacity="0.16" fill="none"/>
  <path d="M 0 725.03 C 368.64 749.40 860.16 700.66 2048 725.03" stroke="#a3f1f4" stroke-width="10.96" stroke-opacity="0.25" fill="none"/>
  <path d="M 0 584.62 C 368.64 607.38 860.16 561.86 2048 584.62" stroke="#a4eef5" stroke-width="12.00" stroke-opacity="0.22" fill="none"/>
  <path d="M 0 641.42 C 368.64 659.23 860.16 623.62 2048 641.42" stroke="#8adce6" stroke-width="9.72" stroke-opacity="0.19" fill="none"/>
  <path d="M 0 271.36 C 368.64 276.40 860.16 266.31 2048 271.36" stroke="#9beaf0" stroke-width="11.51" stroke-opacity="0.15" fill="none"/>
  <path d="M 0 570.44 C 368.64 582.77 860.16 558.10 2048 570.44" stroke="#7fd5e3" stroke-width="10.18" stroke-opacity="0.10" fill="none"/>
  <path d="M 0 31.83 C 368.64 54.09 860.16 9.56 2048 31.83" stroke="#a3f1f4" stroke-width="3.50" stroke-opacity="0.25" fill="none"/>
  <path d="M 0 919.93 C 368.64 943.60 860.16 896.26 2048 919.93" stroke="#a4eef5" stroke-width="13.85" stroke-opacity="0.18" fill="none"/>
  <path d="M 0 757.42 C 368.64 769.43 860.16 745.41 2048 757.42" stroke="#8adce6" stroke-width="3.68" stroke-opacity="0.19" fill="none"/>
  <path d="M 0 941.33 C 368.64 950.72 860.16 931.93 2048 941.33" stroke="#9beaf0" stroke-width="5.85" stroke-opacity="0.11" fill="none"/>
  <path d="M 0 248.09 C 368.64 264.33 860.16 231.86 2048 248.09" stroke="#7fd5e3" stroke-width="10.73" stroke-opacity="0.12" fill="none"/>
  <path d="M 0 635.62 C 368.64 652.01 860.16 619.23 2048 635.62" stroke="#a3f1f4" stroke-width="7.01" stroke-opacity="0.22" fill="none"/>
  <path d="M 0 782.36 C 368.64 801.94 860.16 762.77 2048 782.36" stroke="#a4eef5" stroke-width="12.19" stroke-opacity="0.22" fill="none"/>
  <path d="M 0 163.35 C 368.64 170.29 860.16 156.42 2048 163.35" stroke="#8adce6" stroke-width="3.62" stroke-opacity="0.17" fill="none"/>
  <path d="M 0 879.30 C 368.64 898.62 860.16 859.99 2048 879.30" stroke="#9beaf0" stroke-width="12.12" stroke-opacity="0.20" fill="none"/>
  <path d="M 0 854.64 C 368.64 873.56 860.16 835.71 2048 854.64" stroke="#7fd5e3" stroke-width="7.01" stroke-opacity="0.15" fill="none"/>
  <path d="M 0 948.56 C 368.64 968.32 860.16 928.81 2048 948.56" stroke="#a3f1f4" stroke-width="8.58" stroke-opacity="0.13" fill="none"/>
  <path d="M 0 651.15 C 368.64 655.91 860.16 646.38 2048 651.15" stroke="#a4eef5" stroke-width="2.88" stroke-opacity="0.14" fill="none"/>
  <path d="M 0 300.35 C 368.64 313.01 860.16 287.69 2048 300.35" stroke="#8adce6" stroke-width="4.78" stroke-opacity="0.17" fill="none"/>
  <path d="M 0 364.12 C 368.64 368.52 860.16 359.71 2048 364.12" stroke="#9beaf0" stroke-width="6.30" stroke-opacity="0.18" fill="none"/>
  <path d="M 0 875.43 C 368.64 880.36 860.16 870.50 2048 875.43" stroke="#7fd5e3" stroke-width="6.00" stroke-opacity="0.14" fill="none"/>
  <path d="M 0 268.35 C 368.64 285.86 860.16 250.84 2048 268.35" stroke="#a3f1f4" stroke-width="6.57" stroke-opacity="0.24" fill="none"/>
  <path d="M 0 287.13 C 368.64 298.90 860.16 275.36 2048 287.13" stroke="#a4eef5" stroke-width="2.31" stroke-opacity="0.15" fill="none"/>
  <path d="M 0 344.21 C 368.64 349.16 860.16 339.26 2048 344.21" stroke="#8adce6" stroke-width="5.73" stroke-opacity="0.13" fill="none"/>
  <path d="M 0 799.34 C 368.64 814.63 860.16 784.06 2048 799.34" stroke="#9beaf0" stroke-width="8.93" stroke-opacity="0.23" fill="none"/>
  <path d="M 0 71.61 C 368.64 91.19 860.16 52.04 2048 71.61" stroke="#7fd5e3" stroke-width="6.90" stroke-opacity="0.11" fill="none"/>
  <path d="M 0 448.53 C 368.64 459.95 860.16 437.10 2048 448.53" stroke="#a3f1f4" stroke-width="8.51" stroke-opacity="0.11" fill="none"/>
  <path d="M 0 848.05 C 368.64 863.71 860.16 832.39 2048 848.05" stroke="#a4eef5" stroke-width="12.31" stroke-opacity="0.17" fill="none"/>
  <path d="M 0 101.70 C 368.64 124.00 860.16 79.39 2048 101.70" stroke="#8adce6" stroke-width="10.94" stroke-opacity="0.23" fill="none"/>
  <path d="M 0 790.57 C 368.64 803.56 860.16 777.58 2048 790.57" stroke="#9beaf0" stroke-width="7.11" stroke-opacity="0.17" fill="none"/>
  <path d="M 0 850.43 C 368.64 863.03 860.16 837.84 2048 850.43" stroke="#7fd5e3" stroke-width="3.14" stroke-opacity="0.13" fill="none"/>
  <path d="M 0 353.78 C 368.64 375.27 860.16 332.29 2048 353.78" stroke="#a3f1f4" stroke-width="12.95" stroke-opacity="0.13" fill="none"/>
  <path d="M 0 956.88 C 368.64 973.96 860.16 939.80 2048 956.88" stroke="#a4eef5" stroke-width="4.43" stroke-opacity="0.08" fill="none"/>
  <path d="M 0 331.86 C 368.64 345.17 860.16 318.54 2048 331.86" stroke="#8adce6" stroke-width="7.23" stroke-opacity="0.25" fill="none"/>
  <path d="M 0 543.74 C 368.64 552.10 860.16 535.38 2048 543.74" stroke="#9beaf0" stroke-width="11.71" stroke-opacity="0.17" fill="none"/>
  <path d="M 0 436.54 C 368.64 460.67 860.16 412.40 2048 436.54" stroke="#7fd5e3" stroke-width="8.21" stroke-opacity="0.24" fill="none"/>
  <path d="M 0 716.28 C 368.64 733.03 860.16 699.54 2048 716.28" stroke="#a3f1f4" stroke-width="2.40" stroke-opacity="0.14" fill="none"/>
  <path d="M 0 499.12 C 368.64 514.22 860.16 484.01 2048 499.12" stroke="#a4eef5" stroke-width="13.79" stroke-opacity="0.09" fill="none"/>
  <path d="M 0 188.34 C 368.64 199.11 860.16 177.57 2048 188.34" stroke="#8adce6" stroke-width="7.15" stroke-opacity="0.13" fill="none"/>
  <path d="M 0 200.46 C 368.64 207.94 860.16 192.99 2048 200.46" stroke="#9beaf0" stroke-width="10.06" stroke-opacity="0.19" fill="none"/>
  <path d="M 0 676.30 C 368.64 685.69 860.16 666.91 2048 676.30" stroke="#7fd5e3" stroke-width="12.20" stroke-opacity="0.20" fill="none"/>
  <path d="M 0 401.00 C 368.64 419.76 860.16 382.24 2048 401.00" stroke="#a3f1f4" stroke-width="13.61" stroke-opacity="0.15" fill="none"/>
  <path d="M 0 581.12 C 368.64 597.41 860.16 564.83 2048 581.12" stroke="#a4eef5" stroke-width="3.63" stroke-opacity="0.19" fill="none"/>
  <path d="M 0 950.70 C 368.64 956.10 860.16 945.31 2048 950.70" stroke="#8adce6" stroke-width="3.60" stroke-opacity="0.11" fill="none"/>
  <path d="M 0 510.32 C 368.64 532.27 860.16 488.37 2048 510.32" stroke="#9beaf0" stroke-width="9.24" stroke-opacity="0.11" fill="none"/>
  <path d="M 0 99.13 C 368.64 115.60 860.16 82.66 2048 99.13" stroke="#7fd5e3" stroke-width="7.55" stroke-opacity="0.23" fill="none"/>
  <path d="M 0 159.97 C 368.64 172.19 860.16 147.75 2048 159.97" stroke="#a3f1f4" stroke-width="6.28" stroke-opacity="0.10" fill="none"/>
  <path d="M 0 625.39 C 368.64 631.22 860.16 619.57 2048 625.39" stroke="#a4eef5" stroke-width="4.87" stroke-opacity="0.17" fill="none"/>
  <path d="M 0 892.73 C 368.64 916.89 860.16 868.57 2048 892.73" stroke="#8adce6" stroke-width="6.81" stroke-opacity="0.10" fill="none"/>
  <path d="M 0 160.16 C 368.64 179.25 860.16 141.08 2048 160.16" stroke="#9beaf0" stroke-width="8.23" stroke-opacity="0.20" fill="none"/>
  <path d="M 0 699.79 C 368.64 723.82 860.16 675.76 2048 699.79" stroke="#7fd5e3" stroke-width="8.94" stroke-opacity="0.13" fill="none"/>
  <path d="M 0 515.68 C 368.64 534.21 860.16 497.14 2048 515.68" stroke="#a3f1f4" stroke-width="10.54" stroke-opacity="0.24" fill="none"/>
  <path d="M 0 1002.92 C 368.64 1019.82 860.16 986.02 2048 1002.92" stroke="#a4eef5" stroke-width="5.74" stroke-opacity="0.25" fill="none"/>
  <path d="M 0 183.73 C 368.64 205.27 860.16 162.19 2048 183.73" stroke="#8adce6" stroke-width="13.80" stroke-opacity="0.18" fill="none"/>
  <path d="M 0 720.46 C 368.64 739.82 860.16 701.10 2048 720.46" stroke="#9beaf0" stroke-width="3.92" stroke-opacity="0.13" fill="none"/>
  <path d="M 0 721.69 C 368.64 741.81 860.16 701.57 2048 721.69" stroke="#7fd5e3" stroke-width="7.67" stroke-opacity="0.10" fill="none"/>
  <path d="M 0 125.29 C 368.64 143.40 860.16 107.18 2048 125.29" stroke="#a3f1f4" stroke-width="4.25" stroke-opacity="0.21" fill="none"/>
  <path d="M 0 402.48 C 368.64 411.77 860.16 393.18 2048 402.48" stroke="#a4eef5" stroke-width="5.70" stroke-opacity="0.20" fill="none"/>
  <path d="M 0 158.88 C 368.64 175.74 860.16 142.01 2048 158.88" stroke="#8adce6" stroke-width="3.75" stroke-opacity="0.11" fill="none"/>
  <path d="M 0 728.58 C 368.64 750.42 860.16 706.74 2048 728.58" stroke="#9beaf0" stroke-width="7.49" stroke-opacity="0.16" fill="none"/>
  <path d="M 0 273.23 C 368.64 280.98 860.16 265.47 2048 273.23" stroke="#7fd5e3" stroke-width="7.62" stroke-opacity="0.18" fill="none"/>
  <path d="M 0 210.04 C 368.64 215.69 860.16 204.40 2048 210.04" stroke="#a3f1f4" stroke-width="6.39" stroke-opacity="0.19" fill="none"/>
  <path d="M 0 944.92 C 368.64 955.54 860.16 934.31 2048 944.92" stroke="#a4eef5" stroke-width="2.92" stroke-opacity="0.24" fill="none"/>
  <path d="M 0 1006.48 C 368.64 1021.06 860.16 991.90 2048 1006.48" stroke="#8adce6" stroke-width="7.13" stroke-opacity="0.20" fill="none"/>
  <path d="M 0 621.11 C 368.64 637.25 860.16 604.98 2048 621.11" stroke="#9beaf0" stroke-width="13.98" stroke-opacity="0.12" fill="none"/>
  <path d="M 0 785.07 C 368.64 801.79 860.16 768.34 2048 785.07" stroke="#7fd5e3" stroke-width="5.09" stroke-opacity="0.19" fill="none"/>
  <path d="M 0 409.50 C 368.64 427.03 860.16 391.97 2048 409.50" stroke="#a3f1f4" stroke-width="11.62" stroke-opacity="0.18" fill="none"/>
  <path d="M 0 514.54 C 368.64 530.72 860.16 498.36 2048 514.54" stroke="#a4eef5" stroke-width="11.37" stroke-opacity="0.13" fill="none"/>
  <path d="M 0 128.35 C 368.64 135.77 860.16 120.93 2048 128.35" stroke="#8adce6" stroke-width="12.05" stroke-opacity="0.09" fill="none"/>
  <path d="M 0 547.19 C 368.64 564.59 860.16 529.79 2048 547.19" stroke="#9beaf0" stroke-width="3.58" stroke-opacity="0.20" fill="none"/>
  <path d="M 0 52.49 C 368.64 74.79 860.16 30.20 2048 52.49" stroke="#7fd5e3" stroke-width="5.53" stroke-opacity="0.10" fill="none"/>
  <path d="M 0 348.89 C 368.64 365.34 860.16 332.45 2048 348.89" stroke="#a3f1f4" stroke-width="6.40" stroke-opacity="0.15" fill="none"/>
  <path d="M 0 163.32 C 368.64 172.22 860.16 154.42 2048 163.32" stroke="#a4eef5" stroke-width="2.87" stroke-opacity="0.21" fill="none"/>
  <path d="M 0 853.06 C 368.64 872.17 860.16 833.95 2048 853.06" stroke="#8adce6" stroke-width="13.89" stroke-opacity="0.14" fill="none"/>
  <path d="M 0 998.79 C 368.64 1003.06 860.16 994.52 2048 998.79" stroke="#9beaf0" stroke-width="7.53" stroke-opacity="0.20" fill="none"/>
  <path d="M 0 222.68 C 368.64 247.15 860.16 198.21 2048 222.68" stroke="#7fd5e3" stroke-width="5.55" stroke-opacity="0.25" fill="none"/>
  <path d="M 0 983.42 C 368.64 998.44 860.16 968.40 2048 983.42" stroke="#a3f1f4" stroke-width="9.61" stroke-opacity="0.23" fill="none"/>
  <path d="M 0 428.30 C 368.64 443.15 860.16 413.45 2048 428.30" stroke="#a4eef5" stroke-width="8.10" stroke-opacity="0.09" fill="none"/>
  <path d="M 0 478.29 C 368.64 483.60 860.16 472.98 2048 478.29" stroke="#8adce6" stroke-width="13.47" stroke-opacity="0.18" fill="none"/>
  <path d="M 0 66.04 C 368.64 79.66 860.16 52.43 2048 66.04" stroke="#9beaf0" stroke-width="11.05" stroke-opacity="0.19" fill="none"/>
  <path d="M 0 263.03 C 368.64 277.27 860.16 248.80 2048 263.03" stroke="#7fd5e3" stroke-width="3.24" stroke-opacity="0.16" fill="none"/>
  <path d="M 0 39.57 C 368.64 45.59 860.16 33.55 2048 39.57" stroke="#a3f1f4" stroke-width="12.04" stroke-opacity="0.10" fill="none"/>
  <path d="M 0 593.87 C 368.64 607.15 860.16 580.59 2048 593.87" stroke="#a4eef5" stroke-width="13.91" stroke-opacity="0.15" fill="none"/>
  <path d="M 0 602.12 C 368.64 611.94 860.16 592.31 2048 602.12" stroke="#8adce6" stroke-width="11.81" stroke-opacity="0.25" fill="none"/>
  <path d="M 0 837.56 C 368.64 853.48 860.16 821.64 2048 837.56" stroke="#9beaf0" stroke-width="8.34" stroke-opacity="0.18" fill="none"/>
  <path d="M 0 1022.50 C 368.64 1031.36 860.16 1013.65 2048 1022.50" stroke="#7fd5e3" stroke-width="7.09" stroke-opacity="0.20" fill="none"/>
  <path d="M 0 705.43 C 368.64 714.86 860.16 696.01 2048 705.43" stroke="#a3f1f4" stroke-width="3.88" stroke-opacity="0.24" fill="none"/>

  <rect width="100%" height="100%" fill="#e7fdff" opacity="0.1"/>
  <rect width="100%" height="100%" filter="url(#mist)" opacity="0.78"/>
</svg>
