<?xml version="1.0" encoding="UTF-8"?>
<svg xmlns="http://www.w3.org/2000/svg" width="1024" height="512" viewBox="0 0 1024 512" preserveAspectRatio="none" aria-label="uranus texture">
  <defs>
    <filter id="mist">
      <feTurbulence type="fractalNoise" baseFrequency="0.6 0.02" numOctaves="3" seed="1"/>
      <feColorMatrix type="saturate" values="0"/>
      <feComponentTransfer>
        <feFuncA type="table" tableValues="0 0.12"/>
      </feComponentTransfer>
    </filter>
  </defs>
  <rect x="0" y="0.00" width="1024" height="103.40" fill="#a4eef5"/>
  <rect x="0" y="102.40" width="1024" height="103.40" fill="#8adce6"/>
  <rect x="0" y="204.80" width="1024" height="103.40" fill="#9beaf0"/>
  <rect x="0" y="307.20" width="1024" height="103.40" fill="#7fd5e3"/>
  <rect x="0" y="409.60" width="1024" height="103.40" fill="#a3f1f4"/>
  <path d="M 0 213.45 C 184.32 218.88 430.08 208.03 1024 213.45" stroke="#a4eef5" stroke-width="13.39" stroke-opacity="0.18" fill="none"/>
  <path d="M 0 430.76 C 184.32 437.02 430.08 424.50 1024 430.76" stroke="#8adce6" stroke-width="12.08" stroke-opacity="0.20" fill="none"/>
  <path d="M 0 316.37 C 184.32 325.75 430.08 306.98 1024 316.37" stroke="#9beaf0" stroke-width="9.66" stroke-opacity="0.13" fill="none"/>
  <path d="M 0 9.20 C 184.32 21.45 430.08 -3.05 1024 9.20" stroke="#7fd5e3" stroke-width="2.01" stroke-opacity="0.13" fill="none"/>
  <path d="M 0 26.35 C 184.32 31.68 430.08 21.03 1024 26.35" stroke="#a3f1f4" stroke-width="10.56" stroke-opacity="0.12" fill="none"/>
  <path d="M 0 128.50 C 184.32 140.66 430.08 116.34 1024 128.50" stroke="#a4eef5" stroke-width="8.52" stroke-opacity="0.11" fill="none"/>
  <path d="M 0 395.78 C 184.32 398.48 430.08 393.08 1024 395.78" stroke="#8adce6" stroke-width="12.48" stroke-opacity="0.19" fill="none"/>
  <path d="M 0 138.23 C 184.32 144.71 430.08 131.75 1024 138.23" stroke="#9beaf0" stroke-width="9.73" stroke-opacity="0.20" fill="none"/>
  <path d="M 0 120.67 C 184.32 127.92 430.08 113.41 1024 120.67" stroke="#7fd5e3" stroke-width="6.42" stroke-opacity="0.25" fill="none"/>
  <path d="M 0 398.11 C 184.32 410.34 430.08 385.88 1024 398.11" stroke="#a3f1f4" stroke-width="4.78" stroke-opacity="0.24" fill="none"/>
  <path d="M 0 9.69 C 184.32 15.09 430.08 4.28 1024 9.69" stroke="#a4eef5" stroke-width="8.54" stroke-opacity="0.13" fill="none"/>
  <path d="M 0 299.03 C 184.32 308.31 430.08 289.74 1024 299.03" stroke="#8adce6" stroke-width="2.80" stroke-opacity="0.11" fill="none"/>
  <path d="M 0 445.18 C 184.32 455.79 430.08 434.56 1024 445.18" stroke="#9beaf0" stroke-width="13.49" stroke-opacity="0.10" fill="none"/>
  <path d="M 0 28.01 C 184.32 38.10 430.08 17.91 1024 28.01" stroke="#7fd5e3" stroke-width="6.62" stroke-opacity="0.25" fill="none"/>
  <path d="M 0 28.12 C 184.32 36.23 430.08 20.02 1024 28.12" stroke="#a3f1f4" stroke-width="2.52" stroke-opacity="0.12" fill="none"/>
  <path d="M 0 445.25 C 184.32 452.51 430.08 437.99 1024 445.25" stroke="#a4eef5" stroke-width="3.25" stroke-opacity="0.26" fill="none"/>
  <path d="M 0 15.17 C 184.32 17.67 430.08 12.67 1024 15.17" stroke="#8adce6" stroke-width="6.31" stroke-opacity="0.08" fill="none"/>
  <path d="M 0 49.11 C 184.32 52.73 430.08 45.48 1024 49.11" stroke="#9beaf0" stroke-width="9.04" stroke-opacity="0.21" fill="none"/>
  <path d="M 0 211.63 C 184.32 216.41 430.08 206.85 1024 211.63" stroke="#7fd5e3" stroke-width="6.54" stroke-opacity="0.11" fill="none"/>
  <path d="M 0 293.07 C 184.32 295.12 430.08 291.02 1024 293.07" stroke="#a3f1f4" stroke-width="13.70" stroke-opacity="0.09" fill="none"/>
  <path d="M 0 144.44 C 184.32 153.98 430.08 134.91 1024 144.44" stroke="#a4eef5" stroke-width="12.23" stroke-opacity="0.19" fill="none"/>
  <path d="M 0 310.82 C 184.32 316.89 430.08 304.74 1024 310.82" stroke="#8adce6" stroke-width="2.99" stroke-opacity="0.17" fill="none"/>
  <path d="M 0 395.24 C 184.32 398.90 430.08 391.58 1024 395.24" stroke="#9beaf0" stroke-width="10.85" stroke-opacity="0.18" fill="none"/>
  <path d="M 0 505.15 C 184.32 516.14 430.08 494.16 1024 505.15" stroke="#7fd5e3" stroke-width="12.16" stroke-opacity="0.19" fill="none"/>
  <path d="M 0 509.28 C 184.32 515.64 430.08 502.93 1024 509.28" stroke="#a3f1f4" stroke-width="10.12" stroke-opacity="0.14" fill="none"/>
  <path d="M 0 153.05 C 184.32 158.80 430.08 147.31 1024 153.05" stroke="#a4eef5" stroke-width="6.18" stroke-opacity="0.17" fill="none"/>
  <path d="M 0 136.50 C 184.32 143.89 430.08 129.11 1024 136.50" stroke="#8adce6" stroke-width="2.64" stroke-opacity="0.08" fill="none"/>
  <path d="M 0 290.65 C 184.32 296.95 430.08 284.36 1024 290.65" stroke="#9beaf0" stroke-width="6.71" stroke-opacity="0.11" fill="none"/>
  <path d="M 0 332.47 C 184.32 340.88 430.08 324.07 1024 332.47" stroke="#7fd5e3" stroke-width="9.17" stroke-opacity="0.24" fill="none"/>
  <path d="M 0 102.24 C 184.32 109.81 430.08 94.66 1024 102.24" stroke="#a3f1f4" stroke-width="9.80" stroke-opacity="0.17" fill="none"/>
  <path d="M 0 411.44 C 184.32 414.86 430.08 408.03 1024 411.44" stroke="#a4eef5" stroke-width="8.77" stroke-opacity="0.19" fill="none"/>
  <path d="M 0 125.24 C 184.32 133.12 430.08 117.36 1024 125.24" stroke="#8adce6" stroke-width="6.32" stroke-opacity="0.13" fill="none"/>
  <path d="M 0 79.31 C 184.32 90.45 430.08 68.16 1024 79.31" stroke="#9beaf0" stroke-width="7.60" stroke-opacity="0.12" fill="none"/>
  <path d="M 0 495.27 C 184.32 498.36 430.08 492.19 1024 495.27" stroke="#7fd5e3" stroke-width="9.24" stroke-opacity="0.22" fill="none"/>
  <path d="M 0 190.62 C 184.32 196.22 430.08 185.02 1024 190.62" stroke="#a3f1f4" stroke-width="6.52" stroke-opacity="0.13" fill="none"/>
  <path d="M 0 375.08 C 184.32 377.15 430.08 373.01 1024 375.08" stroke="#a4eef5" stroke-width="3.53" stroke-opacity="0.15" fill="none"/>
  <path d="M 0 81.58 C 184.32 92.73 430.08 70.42 1024 81.58" stroke="#8adce6" stroke-width="11.42" stroke-opacity="0.10" fill="none"/>
  <path d="M 0 103.58 C 184.32 115.55 430.08 91.61 1024 103.58" stroke="#9beaf0" stroke-width="10.91" stroke-opacity="0.23" fill="none"/>
  <path d="M 0 183.05 C 184.32 186.70 430.08 179.40 1024 183.05" stroke="#7fd5e3" stroke-width="2.32" stroke-opacity="0.23" fill="none"/>
  <path d="M 0 432.83 C 184.32 436.51 430.08 429.16 1024 432.83" stroke="#a3f1f4" stroke-width="5.26" stroke-opacity="0.18" fill="none"/>
  <path d="M 0 185.56 C 184.32 192.35 430.08 178.78 1024 185.56" stroke="#a4eef5" stroke-width="5.18" stroke-opacity="0.11" fill="none"/>
  <path d="M 0 389.07 C 184.32 400.10 430.08 378.04 1024 389.07" stroke="#8adce6" stroke-width="2.92" stroke-opacity="0.13" fill="none"/>
  <path d="M 0 436.29 C 184.32 441.02 430.08 431.56 1024 436.29" stroke="#9beaf0" stroke-width="2.53" stroke-opacity="0.23" fill="none"/>
  <path d="M 0 413.67 C 184.32 419.11 430.08 408.23 1024 413.67" stroke="#7fd5e3" stroke-width="3.53" stroke-opacity="0.13" fill="none"/>
  <path d="M 0 424.06 C 184.32 433.11 430.08 415.01 1024 424.06" stroke="#a3f1f4" stroke-width="6.74" stroke-opacity="0.16" fill="none"/>
  <path d="M 0 32.16 C 184.32 38.72 430.08 25.60 1024 32.16" stroke="#a4eef5" stroke-width="9.87" stroke-opacity="0.18" fill="none"/>
  <path d="M 0 496.37 C 184.32 499.74 430.08 493.00 1024 496.37" stroke="#8adce6" stroke-width="8.18" stroke-opacity="0.12" fill="none"/>
  <path d="M 0 291.24 C 184.32 300.64 430.08 281.85 1024 291.24" stroke="#9beaf0" stroke-width="6.22" stroke-opacity="0.17" fill="none"/>
  <path d="M 0 152.36 C 184.32 163.88 430.08 140.84 1024 152.36" stroke="#7fd5e3" stroke-width="13.99" stroke-opacity="0.17" fill="none"/>
  <path d="M 0 211.76 C 184.32 215.93 430.08 207.59 1024 211.76" stroke="#a3f1f4" stroke-width="3.61" stroke-opacity="0.24" fill="none"/>
  <path d="M 0 79.83 C 184.32 82.41 430.08 77.25 1024 79.83" stroke="#a4eef5" stroke-width="9.71" stroke-opacity="0.12" fill="none"/>
  <path d="M 0 57.72 C 184.32 64.75 430.08 50.70 1024 57.72" stroke="#8adce6" stroke-width="7.79" stroke-opacity="0.10" fill="none"/>
  <path d="M 0 256.25 C 184.32 267.72 430.08 244.78 1024 256.25" stroke="#9beaf0" stroke-width="11.61" stroke-opacity="0.25" fill="none"/>
  <path d="M 0 157.29 C 184.32 166.81 430.08 147.77 1024 157.29" stroke="#7fd5e3" stroke-width="5.93" stroke-opacity="0.24" fill="none"/>
  <path d="M 0 257.72 C 184.32 262.00 430.08 253.43 1024 257.72" stroke="#a3f1f4" stroke-width="5.74" stroke-opacity="0.10" fill="none"/>
  <path d="M 0 395.78 C 184.32 406.40 430.08 385.15 1024 395.78" stroke="#a4eef5" stroke-width="8.09" stroke-opacity="0.09" fill="none"/>
  <path d="M 0 240.01 C 184.32 250.49 430.08 229.53 1024 240.01" stroke="#8adce6" stroke-width="13.83" stroke-opacity="0.17" fill="none"/>
  <path d="M 0 380.66 C 184.32 389.09 430.08 372.22 1024 380.66" stroke="#9beaf0" stroke-width="11.40" stroke-opacity="0.20" fill="none"/>
  <path d="M 0 31.56 C 184.32 41.47 430.08 21.64 1024 31.56" stroke="#7fd5e3" stroke-width="9.80" stroke-opacity="0.11" fill="none"/>
  <path d="M 0 278.56 C 184.32 281.30 430.08 275.83 1024 278.56" stroke="#a3f1f4" stroke-width="7.05" stroke-opacity="0.24" fill="none"/>
  <path d="M 0 434.44 C 184.32 439.32 430.08 429.56 1024 434.44" stroke="#a4eef5" stroke-width="11.17" stroke-opacity="0.19" fill="none"/>
  <path d="M 0 276.28 C 184.32 284.77 430.08 267.79 1024 276.28" stroke="#8adce6" stroke-width="6.02" stroke-opacity="0.15" fill="none"/>
  <path d="M 0 77.40 C 184.32 88.24 430.08 66.55 1024 77.40" stroke="#9beaf0" stroke-width="9.09" stroke-opacity="0.14" fill="none"/>
  <path d="M 0 201.75 C 184.32 210.22 430.08 193.28 1024 201.75" stroke="#7fd5e3" stroke-width="11.48" stroke-opacity="0.22" fill="none"/>
  <path d="M 0 108.83 C 184.32 115.68 430.08 101.97 1024 108.83" stroke="#a3f1f4" stroke-width="13.20" stroke-opacity="0.16" fill="none"/>
  <path d="M 0 329.07 C 184.32 338.04 430.08 320.11 1024 329.07" stroke="#a4eef5" stroke-width="10.06" stroke-opacity="0.09" fill="none"/>
  <path d="M 0 345.78 C 184.32 355.27 430.08 336.29 1024 345.78" stroke="#8adce6" stroke-width="7.22" stroke-opacity="0.08" fill="none"/>
  <path d="M 0 295.50 C 184.32 299.48 430.08 291.52 1024 295.50" stroke="#9beaf0" stroke-width="5.77" stroke-opacity="0.13" fill="none"/>
  <path d="M 0 190.96 C 184.32 195.06 430.08 186.86 1024 190.96" stroke="#7fd5e3" stroke-width="7.28" stroke-opacity="0.16" fill="none"/>
  <path d="M 0 226.45 C 184.32 238.16 430.08 214.73 1024 226.45" stroke="#a3f1f4" stroke-width="12.74" stroke-opacity="0.19" fill="none"/>
  <path d="M 0 221.73 C 184.32 231.46 430.08 212.01 1024 221.73" stroke="#a4eef5" stroke-width="6.98" stroke-opacity="0.10" fill="none"/>
  <path d="M 0 484.48 C 184.32 493.78 430.08 475.18 1024 484.48" stroke="#8adce6" stroke-width="6.68" stroke-opacity="0.26" fill="none"/>
  <path d="M 0 355.12 C 184.32 366.81 430.08 343.44 1024 355.12" stroke="#9beaf0" stroke-width="13.29" stroke-opacity="0.17" fill="none"/>
  <path d="M 0 42.32 C 184.32 53.87 430.08 30.77 1024 42.32" stroke="#7fd5e3" stroke-width="3.04" stroke-opacity="0.17" fill="none"/>
  <path d="M 0 220.81 C 184.32 228.08 430.08 213.53 1024 220.81" stroke="#a3f1f4" stroke-width="5.07" stroke-opacity="0.18" fill="none"/>
  <path d="M 0 135.85 C 184.32 142.84 430.08 128.85 1024 135.85" stroke="#a4eef5" stroke-width="10.06" stroke-opacity="0.20" fill="none"/>
  <path d="M 0 206.11 C 184.32 217.38 430.08 194.84 1024 206.11" stroke="#8adce6" stroke-width="6.45" stroke-opacity="0.15" fill="none"/>
  <path d="M 0 397.10 C 184.32 404.24 430.08 389.96 1024 397.10" stroke="#9beaf0" stroke-width="12.41" stroke-opacity="0.18" fill="none"/>
  <path d="M 0 101.03 C 184.32 111.85 430.08 90.21 1024 101.03" stroke="#7fd5e3" stroke-width="10.87" stroke-opacity="0.12" fill="none"/>
  <path d="M 0 267.27 C 184.32 271.57 430.08 262.97 1024 267.27" stroke="#a3f1f4" stroke-width="9.65" stroke-opacity="0.20" fill="none"/>
  <path d="M 0 463.21 C 184.32 466.11 430.08 460.31 1024 463.21" stroke="#a4eef5" stroke-width="7.97" stroke-opacity="0.23" fill="none"/>
  <path d="M 0 57.71 C 184.32 69.59 430.08 45.82 1024 57.71" stroke="#8adce6" stroke-width="13.51" stroke-opacity="0.22" fill="none"/>
  <path d="M 0 46.95 C 184.32 58.90 430.08 35.01 1024 46.95" stroke="#9beaf0" stroke-width="5.16" stroke-opacity="0.25" fill="none"/>
  <path d="M 0 122.91 C 184.32 125.94 430.08 119.89 1024 122.91" stroke="#7fd5e3" stroke-width="3.76" stroke-opacity="0.11" fill="none"/>
  <path d="M 0 48.21 C 184.32 53.90 430.08 42.53 1024 48.21" stroke="#a3f1f4" stroke-width="7.90" stroke-opacity="0.13" fill="none"/>
  <path d="M 0 193.55 C 184.32 196.91 430.08 190.20 1024 193.55" stroke="#a4eef5" stroke-width="11.00" stroke-opacity="0.13" fill="none"/>
  <path d="M 0 317.61 C 184.32 323.84 430.08 311.37 1024 317.61" stroke="#8adce6" stroke-width="6.89" stroke-opacity="0.24" fill="none"/>
  <path d="M 0 405.44 C 184.32 415.86 430.08 395.02 1024 405.44" stroke="#9beaf0" stroke-width="2.07" stroke-opacity="0.18" fill="none"/>
  <path d="M 0 341.40 C 184.32 348.62 430.08 334.19 1024 341.40" stroke="#7fd5e3" stroke-width="7.81" stroke-opacity="0.19" fill="none"/>
  <path d="M 0 440.55 C 184.32 446.39 430.08 434.71 1024 440.55" stroke="#a3f1f4" stroke-width="12.28" stroke-opacity="0.23" fill="none"/>

  <rect width="100%" height="100%" fill="#e7fdff" opacity="0.1"/>
  <rect width="100%" height="100%" filter="url(#mist)" opacity="0.78"/>
</svg>
