<?xml version="1.0" encoding="UTF-8"?>
<svg xmlns="http://www.w3.org/2000/svg" width="1024" height="512" viewBox="0 0 1024 512" preserveAspectRatio="none" aria-label="pluto texture">
  <defs>
    <linearGradient id="base" x1="0" y1="0" x2="0" y2="1">
      <stop offset="0%" stop-color="#bfa89b"/>
      <stop offset="100%" stop-color="#6b5d61"/>
    </linearGradient>
    <filter id="noise">
      <feTurbulence type="fractalNoise" baseFrequency="0.9" numOctaves="3" seed="50"/>
      <feColorMatrix type="saturate" values="0"/>
      <feComponentTransfer>
        <feFuncA type="table" tableValues="0 0.08"/>
      </feComponentTransfer>
    </filter>
  </defs>
  <rect width="100%" height="100%" fill="url(#base)"/>

  <ellipse cx="805.61" cy="87.12" rx="121.27" ry="21.15" fill="#efe2cf" opacity="0.41" transform="rotate(4.38 805.61 87.12)"/>
  <ellipse cx="282.75" cy="385.87" rx="81.12" ry="50.10" fill="#8d7470" opacity="0.27" transform="rotate(290.06 282.75 385.87)"/>
  <ellipse cx="1013.93" cy="214.66" rx="103.03" ry="39.22" fill="#cab8a1" opacity="0.41" transform="rotate(157.68 1013.93 214.66)"/>
  <ellipse cx="826.44" cy="337.73" rx="76.01" ry="15.66" fill="#7b6669" opacity="0.36" transform="rotate(206.64 826.44 337.73)"/>
  <ellipse cx="580.01" cy="489.10" rx="36.26" ry="23.68" fill="#efe2cf" opacity="0.23" transform="rotate(195.17 580.01 489.10)"/>
  <ellipse cx="80.39" cy="135.32" rx="117.24" ry="50.75" fill="#8d7470" opacity="0.41" transform="rotate(229.33 80.39 135.32)"/>
  <ellipse cx="256.49" cy="139.40" rx="74.19" ry="29.45" fill="#cab8a1" opacity="0.35" transform="rotate(356.77 256.49 139.40)"/>
  <ellipse cx="459.46" cy="265.46" rx="77.86" ry="13.26" fill="#7b6669" opacity="0.49" transform="rotate(180.11 459.46 265.46)"/>
  <ellipse cx="659.15" cy="287.99" rx="45.71" ry="9.96" fill="#efe2cf" opacity="0.31" transform="rotate(330.77 659.15 287.99)"/>
  <ellipse cx="342.22" cy="362.25" rx="94.63" ry="58.91" fill="#8d7470" opacity="0.31" transform="rotate(95.10 342.22 362.25)"/>
  <ellipse cx="33.36" cy="264.56" rx="91.58" ry="47.68" fill="#cab8a1" opacity="0.43" transform="rotate(150.13 33.36 264.56)"/>
  <ellipse cx="29.94" cy="4.19" rx="140.82" ry="45.16" fill="#7b6669" opacity="0.41" transform="rotate(21.29 29.94 4.19)"/>
  <ellipse cx="561.51" cy="28.44" rx="96.09" ry="37.26" fill="#efe2cf" opacity="0.35" transform="rotate(69.61 561.51 28.44)"/>
  <ellipse cx="78.49" cy="367.76" rx="64.50" ry="45.22" fill="#8d7470" opacity="0.23" transform="rotate(85.12 78.49 367.76)"/>
  <ellipse cx="923.44" cy="19.42" rx="152.16" ry="56.16" fill="#cab8a1" opacity="0.44" transform="rotate(138.01 923.44 19.42)"/>
  <ellipse cx="563.29" cy="425.54" rx="54.23" ry="31.96" fill="#7b6669" opacity="0.47" transform="rotate(152.11 563.29 425.54)"/>
  <ellipse cx="181.89" cy="125.11" rx="32.59" ry="24.15" fill="#efe2cf" opacity="0.34" transform="rotate(270.11 181.89 125.11)"/>
  <ellipse cx="877.26" cy="448.75" rx="96.33" ry="15.40" fill="#8d7470" opacity="0.35" transform="rotate(287.03 877.26 448.75)"/>
  <ellipse cx="432.93" cy="92.79" rx="120.13" ry="27.34" fill="#cab8a1" opacity="0.28" transform="rotate(272.46 432.93 92.79)"/>
  <ellipse cx="941.73" cy="102.42" rx="34.34" ry="17.08" fill="#7b6669" opacity="0.45" transform="rotate(74.01 941.73 102.42)"/>
  <ellipse cx="13.40" cy="257.71" rx="120.82" ry="49.15" fill="#efe2cf" opacity="0.48" transform="rotate(87.50 13.40 257.71)"/>
  <ellipse cx="870.40" cy="52.90" rx="156.60" ry="10.59" fill="#8d7470" opacity="0.23" transform="rotate(345.78 870.40 52.90)"/>
  <ellipse cx="33.34" cy="52.00" rx="91.78" ry="61.22" fill="#cab8a1" opacity="0.37" transform="rotate(250.44 33.34 52.00)"/>
  <ellipse cx="478.28" cy="264.02" rx="123.70" ry="28.03" fill="#7b6669" opacity="0.36" transform="rotate(161.68 478.28 264.02)"/>
  <ellipse cx="153.44" cy="77.95" rx="36.25" ry="33.44" fill="#efe2cf" opacity="0.37" transform="rotate(123.10 153.44 77.95)"/>
  <ellipse cx="283.60" cy="61.66" rx="104.03" ry="26.73" fill="#8d7470" opacity="0.47" transform="rotate(323.57 283.60 61.66)"/>
  <ellipse cx="743.49" cy="345.92" rx="88.34" ry="55.75" fill="#cab8a1" opacity="0.44" transform="rotate(199.32 743.49 345.92)"/>
  <ellipse cx="786.78" cy="54.82" rx="137.14" ry="25.73" fill="#7b6669" opacity="0.35" transform="rotate(329.18 786.78 54.82)"/>
  <ellipse cx="141.77" cy="204.61" rx="48.92" ry="46.48" fill="#efe2cf" opacity="0.41" transform="rotate(106.09 141.77 204.61)"/>
  <ellipse cx="138.35" cy="497.27" rx="88.02" ry="21.92" fill="#8d7470" opacity="0.26" transform="rotate(232.24 138.35 497.27)"/>
  <ellipse cx="567.53" cy="499.96" rx="80.33" ry="56.43" fill="#cab8a1" opacity="0.44" transform="rotate(214.93 567.53 499.96)"/>
  <ellipse cx="803.89" cy="17.57" rx="154.24" ry="54.44" fill="#7b6669" opacity="0.43" transform="rotate(248.64 803.89 17.57)"/>
  <ellipse cx="654.42" cy="434.46" rx="102.49" ry="52.07" fill="#efe2cf" opacity="0.41" transform="rotate(107.84 654.42 434.46)"/>
  <ellipse cx="249.97" cy="309.74" rx="60.05" ry="11.80" fill="#8d7470" opacity="0.48" transform="rotate(38.23 249.97 309.74)"/>
  <ellipse cx="956.91" cy="159.04" rx="56.72" ry="46.40" fill="#cab8a1" opacity="0.22" transform="rotate(192.14 956.91 159.04)"/>
  <ellipse cx="323.08" cy="488.30" rx="124.89" ry="29.08" fill="#7b6669" opacity="0.46" transform="rotate(41.41 323.08 488.30)"/>
  <ellipse cx="909.74" cy="289.35" rx="85.01" ry="52.10" fill="#efe2cf" opacity="0.24" transform="rotate(248.71 909.74 289.35)"/>
  <ellipse cx="617.58" cy="267.88" rx="118.39" ry="27.62" fill="#8d7470" opacity="0.43" transform="rotate(139.99 617.58 267.88)"/>
  <ellipse cx="792.38" cy="418.64" rx="138.90" ry="21.52" fill="#cab8a1" opacity="0.28" transform="rotate(307.86 792.38 418.64)"/>
  <ellipse cx="776.63" cy="23.32" rx="21.23" ry="61.25" fill="#7b6669" opacity="0.42" transform="rotate(1.74 776.63 23.32)"/>
  <ellipse cx="1002.42" cy="363.11" rx="144.49" ry="8.54" fill="#efe2cf" opacity="0.39" transform="rotate(337.31 1002.42 363.11)"/>
  <ellipse cx="62.12" cy="250.27" rx="109.04" ry="49.72" fill="#8d7470" opacity="0.41" transform="rotate(157.88 62.12 250.27)"/>
  <ellipse cx="414.04" cy="323.74" rx="22.63" ry="12.72" fill="#cab8a1" opacity="0.28" transform="rotate(356.61 414.04 323.74)"/>
  <ellipse cx="193.62" cy="2.24" rx="106.27" ry="28.27" fill="#7b6669" opacity="0.46" transform="rotate(72.97 193.62 2.24)"/>
  <ellipse cx="973.43" cy="372.64" rx="45.74" ry="50.62" fill="#efe2cf" opacity="0.45" transform="rotate(162.34 973.43 372.64)"/>
  <ellipse cx="304.33" cy="152.26" rx="60.06" ry="28.95" fill="#8d7470" opacity="0.45" transform="rotate(356.61 304.33 152.26)"/>
  <ellipse cx="339.26" cy="311.88" rx="41.78" ry="55.52" fill="#cab8a1" opacity="0.39" transform="rotate(98.58 339.26 311.88)"/>
  <ellipse cx="765.97" cy="46.93" rx="28.59" ry="18.84" fill="#7b6669" opacity="0.35" transform="rotate(156.18 765.97 46.93)"/>
  <ellipse cx="712.07" cy="56.86" rx="148.96" ry="9.58" fill="#efe2cf" opacity="0.50" transform="rotate(76.86 712.07 56.86)"/>
  <ellipse cx="122.77" cy="313.02" rx="158.88" ry="52.47" fill="#8d7470" opacity="0.41" transform="rotate(300.17 122.77 313.02)"/>
  <ellipse cx="812.74" cy="312.11" rx="126.40" ry="50.46" fill="#cab8a1" opacity="0.45" transform="rotate(260.16 812.74 312.11)"/>
  <ellipse cx="350.38" cy="128.55" rx="40.61" ry="21.84" fill="#7b6669" opacity="0.40" transform="rotate(171.36 350.38 128.55)"/>
  <ellipse cx="689.93" cy="363.70" rx="139.37" ry="27.15" fill="#efe2cf" opacity="0.22" transform="rotate(75.11 689.93 363.70)"/>
  <ellipse cx="71.82" cy="438.45" rx="129.28" ry="34.27" fill="#8d7470" opacity="0.40" transform="rotate(139.25 71.82 438.45)"/>
  <ellipse cx="140.51" cy="180.02" rx="95.95" ry="21.24" fill="#cab8a1" opacity="0.46" transform="rotate(226.99 140.51 180.02)"/>
  <ellipse cx="674.39" cy="146.55" rx="39.65" ry="41.05" fill="#7b6669" opacity="0.39" transform="rotate(231.11 674.39 146.55)"/>
  <ellipse cx="454.96" cy="317.16" rx="95.45" ry="41.00" fill="#efe2cf" opacity="0.36" transform="rotate(241.75 454.96 317.16)"/>
  <ellipse cx="351.66" cy="92.26" rx="158.49" ry="57.01" fill="#8d7470" opacity="0.39" transform="rotate(211.11 351.66 92.26)"/>
  <ellipse cx="1023.88" cy="420.73" rx="140.56" ry="38.51" fill="#cab8a1" opacity="0.36" transform="rotate(349.50 1023.88 420.73)"/>
  <ellipse cx="502.34" cy="51.63" rx="158.94" ry="16.31" fill="#7b6669" opacity="0.27" transform="rotate(206.76 502.34 51.63)"/>

  <path d="M430.08 143.36 C 348.16 92.16, 184.32 143.36, 204.8 225.28 C 225.28 296.96, 389.12 358.4, 512 317.44 C 655.36 358.4, 819.2 296.96, 839.68 215.04 C 860.16 133.12, 696.32 92.16, 593.92 143.36 C 552.96 163.84, 491.52 163.84, 430.08 143.36 Z" fill="#f3e7d7" opacity="0.95"/>
  <circle cx="5.37" cy="316.24" r="4.89" fill="none" stroke="#f5ede1" stroke-opacity="0.39" stroke-width="1.60"/>
  <circle cx="526.45" cy="11.14" r="16.24" fill="none" stroke="#f5ede1" stroke-opacity="0.25" stroke-width="1.40"/>
  <circle cx="91.32" cy="260.65" r="12.03" fill="none" stroke="#f5ede1" stroke-opacity="0.21" stroke-width="2.02"/>
  <circle cx="488.15" cy="314.26" r="9.10" fill="none" stroke="#f5ede1" stroke-opacity="0.24" stroke-width="1.01"/>
  <circle cx="151.25" cy="456.50" r="13.13" fill="none" stroke="#f5ede1" stroke-opacity="0.15" stroke-width="4.80"/>
  <circle cx="179.96" cy="507.07" r="29.10" fill="none" stroke="#f5ede1" stroke-opacity="0.24" stroke-width="1.38"/>
  <circle cx="633.52" cy="234.77" r="16.30" fill="none" stroke="#f5ede1" stroke-opacity="0.16" stroke-width="4.14"/>
  <circle cx="5.64" cy="49.65" r="20.63" fill="none" stroke="#f5ede1" stroke-opacity="0.30" stroke-width="1.56"/>
  <circle cx="364.29" cy="186.96" r="18.18" fill="none" stroke="#f5ede1" stroke-opacity="0.17" stroke-width="3.08"/>
  <circle cx="528.86" cy="468.68" r="7.83" fill="none" stroke="#f5ede1" stroke-opacity="0.26" stroke-width="1.10"/>
  <circle cx="9.52" cy="231.73" r="28.36" fill="none" stroke="#f5ede1" stroke-opacity="0.15" stroke-width="4.75"/>
  <circle cx="845.57" cy="71.25" r="9.77" fill="none" stroke="#f5ede1" stroke-opacity="0.31" stroke-width="2.16"/>
  <circle cx="116.58" cy="460.83" r="9.67" fill="none" stroke="#f5ede1" stroke-opacity="0.35" stroke-width="4.04"/>
  <circle cx="409.11" cy="105.72" r="18.34" fill="none" stroke="#f5ede1" stroke-opacity="0.35" stroke-width="4.10"/>
  <circle cx="807.04" cy="265.83" r="28.09" fill="none" stroke="#f5ede1" stroke-opacity="0.22" stroke-width="2.48"/>
  <circle cx="721.23" cy="430.80" r="10.78" fill="none" stroke="#f5ede1" stroke-opacity="0.21" stroke-width="2.81"/>
  <circle cx="549.33" cy="503.76" r="23.26" fill="none" stroke="#f5ede1" stroke-opacity="0.36" stroke-width="2.09"/>
  <circle cx="455.13" cy="312.80" r="23.23" fill="none" stroke="#f5ede1" stroke-opacity="0.35" stroke-width="1.57"/>
  <circle cx="76.82" cy="224.18" r="4.52" fill="none" stroke="#f5ede1" stroke-opacity="0.23" stroke-width="1.53"/>
  <circle cx="529.63" cy="461.23" r="8.25" fill="none" stroke="#f5ede1" stroke-opacity="0.16" stroke-width="3.72"/>
  <circle cx="721.98" cy="104.74" r="22.55" fill="none" stroke="#f5ede1" stroke-opacity="0.32" stroke-width="3.31"/>
  <circle cx="502.59" cy="491.68" r="11.09" fill="none" stroke="#f5ede1" stroke-opacity="0.37" stroke-width="2.91"/>
  <circle cx="338.24" cy="154.87" r="14.21" fill="none" stroke="#f5ede1" stroke-opacity="0.39" stroke-width="2.24"/>
  <circle cx="924.79" cy="295.20" r="4.95" fill="none" stroke="#f5ede1" stroke-opacity="0.18" stroke-width="3.59"/>
  <circle cx="82.23" cy="103.52" r="29.47" fill="none" stroke="#f5ede1" stroke-opacity="0.20" stroke-width="4.96"/>
  <circle cx="56.21" cy="168.05" r="19.46" fill="none" stroke="#f5ede1" stroke-opacity="0.22" stroke-width="1.44"/>
  <circle cx="477.86" cy="163.66" r="23.78" fill="none" stroke="#f5ede1" stroke-opacity="0.34" stroke-width="1.89"/>
  <circle cx="812.09" cy="278.13" r="13.87" fill="none" stroke="#f5ede1" stroke-opacity="0.32" stroke-width="1.01"/>
  <circle cx="389.11" cy="90.51" r="17.23" fill="none" stroke="#f5ede1" stroke-opacity="0.21" stroke-width="4.16"/>
  <circle cx="110.61" cy="442.83" r="11.66" fill="none" stroke="#f5ede1" stroke-opacity="0.37" stroke-width="1.37"/>
  <circle cx="860.94" cy="279.09" r="26.21" fill="none" stroke="#f5ede1" stroke-opacity="0.26" stroke-width="4.86"/>
  <circle cx="787.59" cy="11.74" r="27.78" fill="none" stroke="#f5ede1" stroke-opacity="0.39" stroke-width="3.64"/>
  <circle cx="577.05" cy="143.17" r="7.79" fill="none" stroke="#f5ede1" stroke-opacity="0.23" stroke-width="3.29"/>
  <circle cx="772.09" cy="421.91" r="9.85" fill="none" stroke="#f5ede1" stroke-opacity="0.38" stroke-width="1.49"/>
  <circle cx="912.09" cy="262.14" r="5.90" fill="none" stroke="#f5ede1" stroke-opacity="0.25" stroke-width="2.22"/>
  <circle cx="466.28" cy="428.05" r="25.68" fill="none" stroke="#f5ede1" stroke-opacity="0.16" stroke-width="3.18"/>
  <circle cx="832.94" cy="238.94" r="28.62" fill="none" stroke="#f5ede1" stroke-opacity="0.30" stroke-width="4.70"/>
  <circle cx="649.45" cy="280.46" r="21.95" fill="none" stroke="#f5ede1" stroke-opacity="0.19" stroke-width="3.79"/>
  <circle cx="444.74" cy="488.45" r="24.94" fill="none" stroke="#f5ede1" stroke-opacity="0.39" stroke-width="1.67"/>
  <circle cx="403.48" cy="133.96" r="5.57" fill="none" stroke="#f5ede1" stroke-opacity="0.34" stroke-width="2.78"/>
  <circle cx="670.18" cy="328.64" r="25.25" fill="none" stroke="#f5ede1" stroke-opacity="0.35" stroke-width="4.29"/>
  <circle cx="141.82" cy="217.73" r="23.87" fill="none" stroke="#f5ede1" stroke-opacity="0.39" stroke-width="4.40"/>
  <circle cx="915.78" cy="38.87" r="17.95" fill="none" stroke="#f5ede1" stroke-opacity="0.28" stroke-width="2.16"/>
  <circle cx="113.09" cy="434.25" r="13.45" fill="none" stroke="#f5ede1" stroke-opacity="0.21" stroke-width="4.79"/>
  <circle cx="615.76" cy="86.38" r="11.51" fill="none" stroke="#f5ede1" stroke-opacity="0.24" stroke-width="2.50"/>
  <circle cx="767.45" cy="46.27" r="8.54" fill="none" stroke="#f5ede1" stroke-opacity="0.29" stroke-width="1.12"/>
  <circle cx="989.07" cy="38.71" r="16.22" fill="none" stroke="#f5ede1" stroke-opacity="0.31" stroke-width="3.92"/>
  <circle cx="326.90" cy="289.08" r="16.88" fill="none" stroke="#f5ede1" stroke-opacity="0.35" stroke-width="3.64"/>
  <circle cx="998.30" cy="39.93" r="29.03" fill="none" stroke="#f5ede1" stroke-opacity="0.20" stroke-width="4.34"/>
  <circle cx="101.52" cy="191.79" r="17.37" fill="none" stroke="#f5ede1" stroke-opacity="0.16" stroke-width="4.82"/>
  <circle cx="504.01" cy="445.35" r="17.20" fill="none" stroke="#f5ede1" stroke-opacity="0.19" stroke-width="2.26"/>
  <circle cx="486.95" cy="478.12" r="15.59" fill="none" stroke="#f5ede1" stroke-opacity="0.38" stroke-width="1.65"/>
  <circle cx="797.15" cy="281.69" r="6.24" fill="none" stroke="#f5ede1" stroke-opacity="0.37" stroke-width="4.85"/>
  <circle cx="579.00" cy="399.37" r="24.93" fill="none" stroke="#f5ede1" stroke-opacity="0.23" stroke-width="3.15"/>
  <circle cx="577.15" cy="116.41" r="28.07" fill="none" stroke="#f5ede1" stroke-opacity="0.34" stroke-width="2.02"/>
  <circle cx="126.80" cy="18.96" r="19.97" fill="none" stroke="#f5ede1" stroke-opacity="0.26" stroke-width="2.62"/>
  <circle cx="792.42" cy="256.05" r="22.46" fill="none" stroke="#f5ede1" stroke-opacity="0.20" stroke-width="1.84"/>
  <circle cx="498.38" cy="250.27" r="14.85" fill="none" stroke="#f5ede1" stroke-opacity="0.27" stroke-width="1.67"/>
  <circle cx="108.68" cy="390.39" r="24.34" fill="none" stroke="#f5ede1" stroke-opacity="0.15" stroke-width="2.82"/>
  <circle cx="765.87" cy="272.23" r="20.92" fill="none" stroke="#f5ede1" stroke-opacity="0.18" stroke-width="2.94"/>
  <circle cx="152.03" cy="175.29" r="5.14" fill="none" stroke="#f5ede1" stroke-opacity="0.21" stroke-width="2.14"/>
  <circle cx="330.56" cy="89.25" r="28.17" fill="none" stroke="#f5ede1" stroke-opacity="0.17" stroke-width="4.91"/>
  <circle cx="486.05" cy="251.86" r="6.38" fill="none" stroke="#f5ede1" stroke-opacity="0.36" stroke-width="2.10"/>
  <circle cx="76.74" cy="37.10" r="4.32" fill="none" stroke="#f5ede1" stroke-opacity="0.40" stroke-width="1.13"/>
  <circle cx="423.84" cy="136.04" r="18.68" fill="none" stroke="#f5ede1" stroke-opacity="0.22" stroke-width="1.23"/>
  <circle cx="348.63" cy="66.27" r="22.88" fill="none" stroke="#f5ede1" stroke-opacity="0.25" stroke-width="4.61"/>
  <circle cx="836.49" cy="465.08" r="10.35" fill="none" stroke="#f5ede1" stroke-opacity="0.15" stroke-width="4.08"/>
  <circle cx="37.44" cy="397.30" r="18.60" fill="none" stroke="#f5ede1" stroke-opacity="0.30" stroke-width="3.54"/>
  <circle cx="436.63" cy="304.11" r="6.22" fill="none" stroke="#f5ede1" stroke-opacity="0.31" stroke-width="4.58"/>
  <circle cx="666.67" cy="244.84" r="4.32" fill="none" stroke="#f5ede1" stroke-opacity="0.29" stroke-width="3.33"/>
  <circle cx="228.62" cy="396.17" r="12.94" fill="none" stroke="#f5ede1" stroke-opacity="0.24" stroke-width="3.69"/>
  <circle cx="860.82" cy="317.68" r="28.42" fill="none" stroke="#f5ede1" stroke-opacity="0.36" stroke-width="1.06"/>
  <circle cx="686.20" cy="31.97" r="27.93" fill="none" stroke="#f5ede1" stroke-opacity="0.16" stroke-width="4.37"/>
  <circle cx="695.59" cy="248.76" r="21.99" fill="none" stroke="#f5ede1" stroke-opacity="0.27" stroke-width="2.94"/>
  <circle cx="950.96" cy="43.78" r="8.94" fill="none" stroke="#f5ede1" stroke-opacity="0.25" stroke-width="3.52"/>
  <circle cx="876.79" cy="471.21" r="11.11" fill="none" stroke="#f5ede1" stroke-opacity="0.30" stroke-width="4.66"/>
  <circle cx="198.46" cy="44.61" r="23.53" fill="none" stroke="#f5ede1" stroke-opacity="0.34" stroke-width="2.16"/>
  <circle cx="399.92" cy="119.45" r="18.73" fill="none" stroke="#f5ede1" stroke-opacity="0.17" stroke-width="4.16"/>
  <circle cx="83.54" cy="470.21" r="9.08" fill="none" stroke="#f5ede1" stroke-opacity="0.31" stroke-width="2.80"/>
  <circle cx="271.70" cy="136.54" r="16.02" fill="none" stroke="#f5ede1" stroke-opacity="0.18" stroke-width="4.52"/>
  <circle cx="861.44" cy="181.95" r="27.15" fill="none" stroke="#f5ede1" stroke-opacity="0.16" stroke-width="1.04"/>
  <circle cx="875.62" cy="87.66" r="11.28" fill="none" stroke="#f5ede1" stroke-opacity="0.33" stroke-width="4.53"/>
  <circle cx="866.42" cy="49.13" r="19.41" fill="none" stroke="#f5ede1" stroke-opacity="0.25" stroke-width="2.58"/>
  <circle cx="700.61" cy="293.99" r="16.16" fill="none" stroke="#f5ede1" stroke-opacity="0.28" stroke-width="2.67"/>
  <circle cx="682.38" cy="161.78" r="28.90" fill="none" stroke="#f5ede1" stroke-opacity="0.38" stroke-width="3.82"/>
  <circle cx="1000.94" cy="163.81" r="11.85" fill="none" stroke="#f5ede1" stroke-opacity="0.38" stroke-width="3.11"/>
  <circle cx="873.28" cy="457.65" r="18.57" fill="none" stroke="#f5ede1" stroke-opacity="0.33" stroke-width="4.12"/>
  <circle cx="212.61" cy="64.15" r="27.62" fill="none" stroke="#f5ede1" stroke-opacity="0.27" stroke-width="1.79"/>
  <circle cx="689.80" cy="203.13" r="14.44" fill="none" stroke="#f5ede1" stroke-opacity="0.21" stroke-width="2.84"/>
  <circle cx="480.16" cy="66.76" r="29.10" fill="none" stroke="#f5ede1" stroke-opacity="0.36" stroke-width="1.17"/>
  <circle cx="270.00" cy="117.06" r="7.08" fill="none" stroke="#f5ede1" stroke-opacity="0.28" stroke-width="2.50"/>
  <circle cx="593.16" cy="384.83" r="6.08" fill="none" stroke="#f5ede1" stroke-opacity="0.26" stroke-width="2.20"/>
  <circle cx="280.55" cy="14.17" r="29.55" fill="none" stroke="#f5ede1" stroke-opacity="0.32" stroke-width="3.92"/>
  <circle cx="400.46" cy="139.07" r="6.27" fill="none" stroke="#f5ede1" stroke-opacity="0.24" stroke-width="1.31"/>
  <circle cx="990.16" cy="17.92" r="29.63" fill="none" stroke="#f5ede1" stroke-opacity="0.28" stroke-width="2.59"/>
  <circle cx="451.35" cy="278.66" r="8.68" fill="none" stroke="#f5ede1" stroke-opacity="0.19" stroke-width="3.58"/>
  <circle cx="99.86" cy="408.66" r="20.36" fill="none" stroke="#f5ede1" stroke-opacity="0.34" stroke-width="4.17"/>
  <circle cx="869.70" cy="440.79" r="21.70" fill="none" stroke="#f5ede1" stroke-opacity="0.33" stroke-width="4.11"/>
  <circle cx="683.67" cy="401.77" r="26.97" fill="none" stroke="#f5ede1" stroke-opacity="0.19" stroke-width="1.43"/>
  <circle cx="884.26" cy="375.07" r="15.34" fill="none" stroke="#f5ede1" stroke-opacity="0.28" stroke-width="1.51"/>
  <circle cx="54.43" cy="166.82" r="25.75" fill="none" stroke="#f5ede1" stroke-opacity="0.24" stroke-width="3.92"/>
  <circle cx="679.25" cy="461.75" r="8.24" fill="none" stroke="#f5ede1" stroke-opacity="0.33" stroke-width="2.93"/>
  <circle cx="910.29" cy="179.25" r="20.16" fill="none" stroke="#f5ede1" stroke-opacity="0.32" stroke-width="2.07"/>
  <circle cx="630.26" cy="318.86" r="13.11" fill="none" stroke="#f5ede1" stroke-opacity="0.32" stroke-width="1.46"/>
  <circle cx="794.49" cy="340.75" r="24.69" fill="none" stroke="#f5ede1" stroke-opacity="0.32" stroke-width="2.65"/>
  <circle cx="95.79" cy="484.35" r="20.65" fill="none" stroke="#f5ede1" stroke-opacity="0.22" stroke-width="1.82"/>
  <circle cx="154.20" cy="340.77" r="9.82" fill="none" stroke="#f5ede1" stroke-opacity="0.20" stroke-width="4.87"/>
  <circle cx="887.31" cy="377.22" r="6.33" fill="none" stroke="#f5ede1" stroke-opacity="0.39" stroke-width="2.08"/>
  <circle cx="872.82" cy="172.33" r="27.66" fill="none" stroke="#f5ede1" stroke-opacity="0.25" stroke-width="1.31"/>
  <circle cx="974.14" cy="124.80" r="13.03" fill="none" stroke="#f5ede1" stroke-opacity="0.18" stroke-width="3.14"/>
  <circle cx="859.57" cy="455.65" r="29.44" fill="none" stroke="#f5ede1" stroke-opacity="0.17" stroke-width="3.45"/>
  <circle cx="292.27" cy="277.22" r="5.86" fill="none" stroke="#f5ede1" stroke-opacity="0.27" stroke-width="4.65"/>
  <circle cx="476.87" cy="151.64" r="9.38" fill="none" stroke="#f5ede1" stroke-opacity="0.38" stroke-width="2.60"/>
  <circle cx="687.06" cy="460.97" r="14.71" fill="none" stroke="#f5ede1" stroke-opacity="0.33" stroke-width="4.05"/>
  <circle cx="551.15" cy="11.82" r="4.15" fill="none" stroke="#f5ede1" stroke-opacity="0.33" stroke-width="1.25"/>
  <circle cx="749.24" cy="209.92" r="5.65" fill="none" stroke="#f5ede1" stroke-opacity="0.18" stroke-width="2.46"/>
  <circle cx="357.80" cy="223.82" r="28.97" fill="none" stroke="#f5ede1" stroke-opacity="0.19" stroke-width="1.84"/>
  <circle cx="176.05" cy="410.58" r="12.06" fill="none" stroke="#f5ede1" stroke-opacity="0.17" stroke-width="2.22"/>
  <circle cx="847.77" cy="91.90" r="20.18" fill="none" stroke="#f5ede1" stroke-opacity="0.30" stroke-width="1.83"/>
  <circle cx="1018.85" cy="360.84" r="12.83" fill="none" stroke="#f5ede1" stroke-opacity="0.38" stroke-width="4.95"/>
  <rect width="100%" height="100%" filter="url(#noise)" opacity="0.7"/>
</svg>
