<?xml version="1.0" encoding="UTF-8"?>
<svg xmlns="http://www.w3.org/2000/svg" width="1024" height="512" viewBox="0 0 1024 512" preserveAspectRatio="none" aria-label="pluto roughness texture">
  <defs>
    <linearGradient id="rough" x1="0" y1="0" x2="1" y2="1">
      <stop offset="0%" stop-color="#787878"/>
      <stop offset="100%" stop-color="#efefef"/>
    </linearGradient>
  </defs>
  <rect width="100%" height="100%" fill="url(#rough)"/>
  <circle cx="5.37" cy="316.24" r="4.89" fill="none" stroke="#ffffff" stroke-opacity="0.39" stroke-width="1.60"/>
  <circle cx="526.45" cy="11.14" r="16.24" fill="none" stroke="#ffffff" stroke-opacity="0.25" stroke-width="1.40"/>
  <circle cx="91.32" cy="260.65" r="12.03" fill="none" stroke="#ffffff" stroke-opacity="0.21" stroke-width="2.02"/>
  <circle cx="488.15" cy="314.26" r="9.10" fill="none" stroke="#ffffff" stroke-opacity="0.24" stroke-width="1.01"/>
  <circle cx="151.25" cy="456.50" r="13.13" fill="none" stroke="#ffffff" stroke-opacity="0.15" stroke-width="4.80"/>
  <circle cx="179.96" cy="507.07" r="29.10" fill="none" stroke="#ffffff" stroke-opacity="0.24" stroke-width="1.38"/>
  <circle cx="633.52" cy="234.77" r="16.30" fill="none" stroke="#ffffff" stroke-opacity="0.16" stroke-width="4.14"/>
  <circle cx="5.64" cy="49.65" r="20.63" fill="none" stroke="#ffffff" stroke-opacity="0.30" stroke-width="1.56"/>
  <circle cx="364.29" cy="186.96" r="18.18" fill="none" stroke="#ffffff" stroke-opacity="0.17" stroke-width="3.08"/>
  <circle cx="528.86" cy="468.68" r="7.83" fill="none" stroke="#ffffff" stroke-opacity="0.26" stroke-width="1.10"/>
  <circle cx="9.52" cy="231.73" r="28.36" fill="none" stroke="#ffffff" stroke-opacity="0.15" stroke-width="4.75"/>
  <circle cx="845.57" cy="71.25" r="9.77" fill="none" stroke="#ffffff" stroke-opacity="0.31" stroke-width="2.16"/>
  <circle cx="116.58" cy="460.83" r="9.67" fill="none" stroke="#ffffff" stroke-opacity="0.35" stroke-width="4.04"/>
  <circle cx="409.11" cy="105.72" r="18.34" fill="none" stroke="#ffffff" stroke-opacity="0.35" stroke-width="4.10"/>
  <circle cx="807.04" cy="265.83" r="28.09" fill="none" stroke="#ffffff" stroke-opacity="0.22" stroke-width="2.48"/>
  <circle cx="721.23" cy="430.80" r="10.78" fill="none" stroke="#ffffff" stroke-opacity="0.21" stroke-width="2.81"/>
  <circle cx="549.33" cy="503.76" r="23.26" fill="none" stroke="#ffffff" stroke-opacity="0.36" stroke-width="2.09"/>
  <circle cx="455.13" cy="312.80" r="23.23" fill="none" stroke="#ffffff" stroke-opacity="0.35" stroke-width="1.57"/>
  <circle cx="76.82" cy="224.18" r="4.52" fill="none" stroke="#ffffff" stroke-opacity="0.23" stroke-width="1.53"/>
  <circle cx="529.63" cy="461.23" r="8.25" fill="none" stroke="#ffffff" stroke-opacity="0.16" stroke-width="3.72"/>
  <circle cx="721.98" cy="104.74" r="22.55" fill="none" stroke="#ffffff" stroke-opacity="0.32" stroke-width="3.31"/>
  <circle cx="502.59" cy="491.68" r="11.09" fill="none" stroke="#ffffff" stroke-opacity="0.37" stroke-width="2.91"/>
  <circle cx="338.24" cy="154.87" r="14.21" fill="none" stroke="#ffffff" stroke-opacity="0.39" stroke-width="2.24"/>
  <circle cx="924.79" cy="295.20" r="4.95" fill="none" stroke="#ffffff" stroke-opacity="0.18" stroke-width="3.59"/>
  <circle cx="82.23" cy="103.52" r="29.47" fill="none" stroke="#ffffff" stroke-opacity="0.20" stroke-width="4.96"/>
  <circle cx="56.21" cy="168.05" r="19.46" fill="none" stroke="#ffffff" stroke-opacity="0.22" stroke-width="1.44"/>
  <circle cx="477.86" cy="163.66" r="23.78" fill="none" stroke="#ffffff" stroke-opacity="0.34" stroke-width="1.89"/>
  <circle cx="812.09" cy="278.13" r="13.87" fill="none" stroke="#ffffff" stroke-opacity="0.32" stroke-width="1.01"/>
  <circle cx="389.11" cy="90.51" r="17.23" fill="none" stroke="#ffffff" stroke-opacity="0.21" stroke-width="4.16"/>
  <circle cx="110.61" cy="442.83" r="11.66" fill="none" stroke="#ffffff" stroke-opacity="0.37" stroke-width="1.37"/>
  <circle cx="860.94" cy="279.09" r="26.21" fill="none" stroke="#ffffff" stroke-opacity="0.26" stroke-width="4.86"/>
  <circle cx="787.59" cy="11.74" r="27.78" fill="none" stroke="#ffffff" stroke-opacity="0.39" stroke-width="3.64"/>
  <circle cx="577.05" cy="143.17" r="7.79" fill="none" stroke="#ffffff" stroke-opacity="0.23" stroke-width="3.29"/>
  <circle cx="772.09" cy="421.91" r="9.85" fill="none" stroke="#ffffff" stroke-opacity="0.38" stroke-width="1.49"/>
  <circle cx="912.09" cy="262.14" r="5.90" fill="none" stroke="#ffffff" stroke-opacity="0.25" stroke-width="2.22"/>
  <circle cx="466.28" cy="428.05" r="25.68" fill="none" stroke="#ffffff" stroke-opacity="0.16" stroke-width="3.18"/>
  <circle cx="832.94" cy="238.94" r="28.62" fill="none" stroke="#ffffff" stroke-opacity="0.30" stroke-width="4.70"/>
  <circle cx="649.45" cy="280.46" r="21.95" fill="none" stroke="#ffffff" stroke-opacity="0.19" stroke-width="3.79"/>
  <circle cx="444.74" cy="488.45" r="24.94" fill="none" stroke="#ffffff" stroke-opacity="0.39" stroke-width="1.67"/>
  <circle cx="403.48" cy="133.96" r="5.57" fill="none" stroke="#ffffff" stroke-opacity="0.34" stroke-width="2.78"/>
  <circle cx="670.18" cy="328.64" r="25.25" fill="none" stroke="#ffffff" stroke-opacity="0.35" stroke-width="4.29"/>
  <circle cx="141.82" cy="217.73" r="23.87" fill="none" stroke="#ffffff" stroke-opacity="0.39" stroke-width="4.40"/>
  <circle cx="915.78" cy="38.87" r="17.95" fill="none" stroke="#ffffff" stroke-opacity="0.28" stroke-width="2.16"/>
  <circle cx="113.09" cy="434.25" r="13.45" fill="none" stroke="#ffffff" stroke-opacity="0.21" stroke-width="4.79"/>
  <circle cx="615.76" cy="86.38" r="11.51" fill="none" stroke="#ffffff" stroke-opacity="0.24" stroke-width="2.50"/>
  <circle cx="767.45" cy="46.27" r="8.54" fill="none" stroke="#ffffff" stroke-opacity="0.29" stroke-width="1.12"/>
  <circle cx="989.07" cy="38.71" r="16.22" fill="none" stroke="#ffffff" stroke-opacity="0.31" stroke-width="3.92"/>
  <circle cx="326.90" cy="289.08" r="16.88" fill="none" stroke="#ffffff" stroke-opacity="0.35" stroke-width="3.64"/>
  <circle cx="998.30" cy="39.93" r="29.03" fill="none" stroke="#ffffff" stroke-opacity="0.20" stroke-width="4.34"/>
  <circle cx="101.52" cy="191.79" r="17.37" fill="none" stroke="#ffffff" stroke-opacity="0.16" stroke-width="4.82"/>
  <circle cx="504.01" cy="445.35" r="17.20" fill="none" stroke="#ffffff" stroke-opacity="0.19" stroke-width="2.26"/>
  <circle cx="486.95" cy="478.12" r="15.59" fill="none" stroke="#ffffff" stroke-opacity="0.38" stroke-width="1.65"/>
  <circle cx="797.15" cy="281.69" r="6.24" fill="none" stroke="#ffffff" stroke-opacity="0.37" stroke-width="4.85"/>
  <circle cx="579.00" cy="399.37" r="24.93" fill="none" stroke="#ffffff" stroke-opacity="0.23" stroke-width="3.15"/>
  <circle cx="577.15" cy="116.41" r="28.07" fill="none" stroke="#ffffff" stroke-opacity="0.34" stroke-width="2.02"/>
  <circle cx="126.80" cy="18.96" r="19.97" fill="none" stroke="#ffffff" stroke-opacity="0.26" stroke-width="2.62"/>
  <circle cx="792.42" cy="256.05" r="22.46" fill="none" stroke="#ffffff" stroke-opacity="0.20" stroke-width="1.84"/>
  <circle cx="498.38" cy="250.27" r="14.85" fill="none" stroke="#ffffff" stroke-opacity="0.27" stroke-width="1.67"/>
  <circle cx="108.68" cy="390.39" r="24.34" fill="none" stroke="#ffffff" stroke-opacity="0.15" stroke-width="2.82"/>
  <circle cx="765.87" cy="272.23" r="20.92" fill="none" stroke="#ffffff" stroke-opacity="0.18" stroke-width="2.94"/>
  <circle cx="152.03" cy="175.29" r="5.14" fill="none" stroke="#ffffff" stroke-opacity="0.21" stroke-width="2.14"/>
  <circle cx="330.56" cy="89.25" r="28.17" fill="none" stroke="#ffffff" stroke-opacity="0.17" stroke-width="4.91"/>
  <circle cx="486.05" cy="251.86" r="6.38" fill="none" stroke="#ffffff" stroke-opacity="0.36" stroke-width="2.10"/>
  <circle cx="76.74" cy="37.10" r="4.32" fill="none" stroke="#ffffff" stroke-opacity="0.40" stroke-width="1.13"/>
  <circle cx="423.84" cy="136.04" r="18.68" fill="none" stroke="#ffffff" stroke-opacity="0.22" stroke-width="1.23"/>
  <circle cx="348.63" cy="66.27" r="22.88" fill="none" stroke="#ffffff" stroke-opacity="0.25" stroke-width="4.61"/>
  <circle cx="836.49" cy="465.08" r="10.35" fill="none" stroke="#ffffff" stroke-opacity="0.15" stroke-width="4.08"/>
  <circle cx="37.44" cy="397.30" r="18.60" fill="none" stroke="#ffffff" stroke-opacity="0.30" stroke-width="3.54"/>
  <circle cx="436.63" cy="304.11" r="6.22" fill="none" stroke="#ffffff" stroke-opacity="0.31" stroke-width="4.58"/>
  <circle cx="666.67" cy="244.84" r="4.32" fill="none" stroke="#ffffff" stroke-opacity="0.29" stroke-width="3.33"/>
  <circle cx="228.62" cy="396.17" r="12.94" fill="none" stroke="#ffffff" stroke-opacity="0.24" stroke-width="3.69"/>
  <circle cx="860.82" cy="317.68" r="28.42" fill="none" stroke="#ffffff" stroke-opacity="0.36" stroke-width="1.06"/>
  <circle cx="686.20" cy="31.97" r="27.93" fill="none" stroke="#ffffff" stroke-opacity="0.16" stroke-width="4.37"/>
  <circle cx="695.59" cy="248.76" r="21.99" fill="none" stroke="#ffffff" stroke-opacity="0.27" stroke-width="2.94"/>
  <circle cx="950.96" cy="43.78" r="8.94" fill="none" stroke="#ffffff" stroke-opacity="0.25" stroke-width="3.52"/>
  <circle cx="876.79" cy="471.21" r="11.11" fill="none" stroke="#ffffff" stroke-opacity="0.30" stroke-width="4.66"/>
  <circle cx="198.46" cy="44.61" r="23.53" fill="none" stroke="#ffffff" stroke-opacity="0.34" stroke-width="2.16"/>
  <circle cx="399.92" cy="119.45" r="18.73" fill="none" stroke="#ffffff" stroke-opacity="0.17" stroke-width="4.16"/>
  <circle cx="83.54" cy="470.21" r="9.08" fill="none" stroke="#ffffff" stroke-opacity="0.31" stroke-width="2.80"/>
  <circle cx="271.70" cy="136.54" r="16.02" fill="none" stroke="#ffffff" stroke-opacity="0.18" stroke-width="4.52"/>
  <circle cx="861.44" cy="181.95" r="27.15" fill="none" stroke="#ffffff" stroke-opacity="0.16" stroke-width="1.04"/>
  <circle cx="875.62" cy="87.66" r="11.28" fill="none" stroke="#ffffff" stroke-opacity="0.33" stroke-width="4.53"/>
  <circle cx="866.42" cy="49.13" r="19.41" fill="none" stroke="#ffffff" stroke-opacity="0.25" stroke-width="2.58"/>
  <circle cx="700.61" cy="293.99" r="16.16" fill="none" stroke="#ffffff" stroke-opacity="0.28" stroke-width="2.67"/>
  <circle cx="682.38" cy="161.78" r="28.90" fill="none" stroke="#ffffff" stroke-opacity="0.38" stroke-width="3.82"/>
  <circle cx="1000.94" cy="163.81" r="11.85" fill="none" stroke="#ffffff" stroke-opacity="0.38" stroke-width="3.11"/>
  <circle cx="873.28" cy="457.65" r="18.57" fill="none" stroke="#ffffff" stroke-opacity="0.33" stroke-width="4.12"/>
  <circle cx="212.61" cy="64.15" r="27.62" fill="none" stroke="#ffffff" stroke-opacity="0.27" stroke-width="1.79"/>
  <circle cx="689.80" cy="203.13" r="14.44" fill="none" stroke="#ffffff" stroke-opacity="0.21" stroke-width="2.84"/>
  <circle cx="480.16" cy="66.76" r="29.10" fill="none" stroke="#ffffff" stroke-opacity="0.36" stroke-width="1.17"/>
  <circle cx="270.00" cy="117.06" r="7.08" fill="none" stroke="#ffffff" stroke-opacity="0.28" stroke-width="2.50"/>
  <circle cx="593.16" cy="384.83" r="6.08" fill="none" stroke="#ffffff" stroke-opacity="0.26" stroke-width="2.20"/>
  <circle cx="280.55" cy="14.17" r="29.55" fill="none" stroke="#ffffff" stroke-opacity="0.32" stroke-width="3.92"/>
  <circle cx="400.46" cy="139.07" r="6.27" fill="none" stroke="#ffffff" stroke-opacity="0.24" stroke-width="1.31"/>
  <circle cx="990.16" cy="17.92" r="29.63" fill="none" stroke="#ffffff" stroke-opacity="0.28" stroke-width="2.59"/>
  <circle cx="451.35" cy="278.66" r="8.68" fill="none" stroke="#ffffff" stroke-opacity="0.19" stroke-width="3.58"/>
  <circle cx="99.86" cy="408.66" r="20.36" fill="none" stroke="#ffffff" stroke-opacity="0.34" stroke-width="4.17"/>
  <circle cx="869.70" cy="440.79" r="21.70" fill="none" stroke="#ffffff" stroke-opacity="0.33" stroke-width="4.11"/>
  <circle cx="683.67" cy="401.77" r="26.97" fill="none" stroke="#ffffff" stroke-opacity="0.19" stroke-width="1.43"/>
  <circle cx="884.26" cy="375.07" r="15.34" fill="none" stroke="#ffffff" stroke-opacity="0.28" stroke-width="1.51"/>
  <circle cx="54.43" cy="166.82" r="25.75" fill="none" stroke="#ffffff" stroke-opacity="0.24" stroke-width="3.92"/>
  <circle cx="679.25" cy="461.75" r="8.24" fill="none" stroke="#ffffff" stroke-opacity="0.33" stroke-width="2.93"/>
  <circle cx="910.29" cy="179.25" r="20.16" fill="none" stroke="#ffffff" stroke-opacity="0.32" stroke-width="2.07"/>
  <circle cx="630.26" cy="318.86" r="13.11" fill="none" stroke="#ffffff" stroke-opacity="0.32" stroke-width="1.46"/>
  <circle cx="794.49" cy="340.75" r="24.69" fill="none" stroke="#ffffff" stroke-opacity="0.32" stroke-width="2.65"/>
  <circle cx="95.79" cy="484.35" r="20.65" fill="none" stroke="#ffffff" stroke-opacity="0.22" stroke-width="1.82"/>
  <circle cx="154.20" cy="340.77" r="9.82" fill="none" stroke="#ffffff" stroke-opacity="0.20" stroke-width="4.87"/>
  <circle cx="887.31" cy="377.22" r="6.33" fill="none" stroke="#ffffff" stroke-opacity="0.39" stroke-width="2.08"/>
  <circle cx="872.82" cy="172.33" r="27.66" fill="none" stroke="#ffffff" stroke-opacity="0.25" stroke-width="1.31"/>
  <circle cx="974.14" cy="124.80" r="13.03" fill="none" stroke="#ffffff" stroke-opacity="0.18" stroke-width="3.14"/>
  <circle cx="859.57" cy="455.65" r="29.44" fill="none" stroke="#ffffff" stroke-opacity="0.17" stroke-width="3.45"/>
  <circle cx="292.27" cy="277.22" r="5.86" fill="none" stroke="#ffffff" stroke-opacity="0.27" stroke-width="4.65"/>
  <circle cx="476.87" cy="151.64" r="9.38" fill="none" stroke="#ffffff" stroke-opacity="0.38" stroke-width="2.60"/>
  <circle cx="687.06" cy="460.97" r="14.71" fill="none" stroke="#ffffff" stroke-opacity="0.33" stroke-width="4.05"/>
  <circle cx="551.15" cy="11.82" r="4.15" fill="none" stroke="#ffffff" stroke-opacity="0.33" stroke-width="1.25"/>
  <circle cx="749.24" cy="209.92" r="5.65" fill="none" stroke="#ffffff" stroke-opacity="0.18" stroke-width="2.46"/>
  <circle cx="357.80" cy="223.82" r="28.97" fill="none" stroke="#ffffff" stroke-opacity="0.19" stroke-width="1.84"/>
  <circle cx="176.05" cy="410.58" r="12.06" fill="none" stroke="#ffffff" stroke-opacity="0.17" stroke-width="2.22"/>
  <circle cx="847.77" cy="91.90" r="20.18" fill="none" stroke="#ffffff" stroke-opacity="0.30" stroke-width="1.83"/>
  <circle cx="1018.85" cy="360.84" r="12.83" fill="none" stroke="#ffffff" stroke-opacity="0.38" stroke-width="4.95"/>
</svg>
