<?xml version="1.0" encoding="UTF-8"?>
<svg xmlns="http://www.w3.org/2000/svg" width="2048" height="1024" viewBox="0 0 2048 1024" preserveAspectRatio="none" aria-label="pluto roughness texture">
  <defs>
    <linearGradient id="rough" x1="0" y1="0" x2="1" y2="1">
      <stop offset="0%" stop-color="#787878"/>
      <stop offset="100%" stop-color="#efefef"/>
    </linearGradient>
  </defs>
  <rect width="100%" height="100%" fill="url(#rough)"/>
  <circle cx="509.10" cy="285.78" r="53.31" fill="none" stroke="#ffffff" stroke-opacity="0.34" stroke-width="1.46"/>
  <circle cx="740.33" cy="78.27" r="16.30" fill="none" stroke="#ffffff" stroke-opacity="0.40" stroke-width="3.94"/>
  <circle cx="57.05" cy="466.78" r="35.68" fill="none" stroke="#ffffff" stroke-opacity="0.26" stroke-width="2.77"/>
  <circle cx="405.15" cy="567.45" r="53.47" fill="none" stroke="#ffffff" stroke-opacity="0.27" stroke-width="3.42"/>
  <circle cx="281.21" cy="657.66" r="24.37" fill="none" stroke="#ffffff" stroke-opacity="0.40" stroke-width="4.94"/>
  <circle cx="1675.18" cy="548.91" r="50.90" fill="none" stroke="#ffffff" stroke-opacity="0.29" stroke-width="1.64"/>
  <circle cx="1944.45" cy="574.91" r="53.65" fill="none" stroke="#ffffff" stroke-opacity="0.20" stroke-width="3.99"/>
  <circle cx="1512.26" cy="749.90" r="32.12" fill="none" stroke="#ffffff" stroke-opacity="0.38" stroke-width="2.47"/>
  <circle cx="1878.22" cy="384.06" r="49.49" fill="none" stroke="#ffffff" stroke-opacity="0.31" stroke-width="4.16"/>
  <circle cx="575.28" cy="722.01" r="14.90" fill="none" stroke="#ffffff" stroke-opacity="0.38" stroke-width="4.47"/>
  <circle cx="611.45" cy="242.76" r="52.86" fill="none" stroke="#ffffff" stroke-opacity="0.38" stroke-width="1.72"/>
  <circle cx="1295.64" cy="563.28" r="12.78" fill="none" stroke="#ffffff" stroke-opacity="0.30" stroke-width="4.50"/>
  <circle cx="524.80" cy="42.23" r="27.65" fill="none" stroke="#ffffff" stroke-opacity="0.21" stroke-width="3.46"/>
  <circle cx="899.99" cy="764.72" r="53.84" fill="none" stroke="#ffffff" stroke-opacity="0.18" stroke-width="2.90"/>
  <circle cx="330.42" cy="376.67" r="47.14" fill="none" stroke="#ffffff" stroke-opacity="0.32" stroke-width="3.34"/>
  <circle cx="1171.37" cy="960.63" r="41.78" fill="none" stroke="#ffffff" stroke-opacity="0.15" stroke-width="2.91"/>
  <circle cx="1839.45" cy="655.23" r="43.51" fill="none" stroke="#ffffff" stroke-opacity="0.15" stroke-width="2.01"/>
  <circle cx="333.94" cy="874.55" r="21.30" fill="none" stroke="#ffffff" stroke-opacity="0.18" stroke-width="1.86"/>
  <circle cx="1141.63" cy="748.21" r="20.64" fill="none" stroke="#ffffff" stroke-opacity="0.31" stroke-width="1.12"/>
  <circle cx="664.67" cy="122.17" r="44.19" fill="none" stroke="#ffffff" stroke-opacity="0.35" stroke-width="1.82"/>
  <circle cx="1427.11" cy="36.03" r="18.27" fill="none" stroke="#ffffff" stroke-opacity="0.37" stroke-width="2.53"/>
  <circle cx="869.18" cy="349.22" r="11.87" fill="none" stroke="#ffffff" stroke-opacity="0.30" stroke-width="1.51"/>
  <circle cx="810.85" cy="142.73" r="41.95" fill="none" stroke="#ffffff" stroke-opacity="0.32" stroke-width="4.34"/>
  <circle cx="524.97" cy="231.54" r="28.43" fill="none" stroke="#ffffff" stroke-opacity="0.19" stroke-width="3.21"/>
  <circle cx="409.77" cy="8.52" r="56.12" fill="none" stroke="#ffffff" stroke-opacity="0.36" stroke-width="4.84"/>
  <circle cx="353.31" cy="601.42" r="53.62" fill="none" stroke="#ffffff" stroke-opacity="0.27" stroke-width="4.02"/>
  <circle cx="1636.97" cy="896.98" r="31.17" fill="none" stroke="#ffffff" stroke-opacity="0.18" stroke-width="3.91"/>
  <circle cx="187.05" cy="541.23" r="57.16" fill="none" stroke="#ffffff" stroke-opacity="0.29" stroke-width="3.86"/>
  <circle cx="991.15" cy="73.66" r="44.06" fill="none" stroke="#ffffff" stroke-opacity="0.39" stroke-width="3.88"/>
  <circle cx="1119.57" cy="934.69" r="35.94" fill="none" stroke="#ffffff" stroke-opacity="0.25" stroke-width="1.11"/>
  <circle cx="253.65" cy="689.61" r="22.16" fill="none" stroke="#ffffff" stroke-opacity="0.36" stroke-width="3.88"/>
  <circle cx="874.16" cy="998.76" r="42.72" fill="none" stroke="#ffffff" stroke-opacity="0.28" stroke-width="1.10"/>
  <circle cx="391.25" cy="448.46" r="44.81" fill="none" stroke="#ffffff" stroke-opacity="0.23" stroke-width="1.21"/>
  <circle cx="147.01" cy="728.20" r="40.06" fill="none" stroke="#ffffff" stroke-opacity="0.36" stroke-width="1.82"/>
  <circle cx="520.94" cy="784.76" r="34.41" fill="none" stroke="#ffffff" stroke-opacity="0.32" stroke-width="3.02"/>
  <circle cx="1575.17" cy="2.12" r="52.93" fill="none" stroke="#ffffff" stroke-opacity="0.18" stroke-width="3.46"/>
  <circle cx="1999.06" cy="798.08" r="15.10" fill="none" stroke="#ffffff" stroke-opacity="0.21" stroke-width="3.61"/>
  <circle cx="1486.59" cy="430.53" r="23.47" fill="none" stroke="#ffffff" stroke-opacity="0.40" stroke-width="1.06"/>
  <circle cx="2.89" cy="792.63" r="13.08" fill="none" stroke="#ffffff" stroke-opacity="0.32" stroke-width="2.97"/>
  <circle cx="215.66" cy="827.98" r="33.48" fill="none" stroke="#ffffff" stroke-opacity="0.24" stroke-width="3.24"/>
  <circle cx="1663.10" cy="692.89" r="56.34" fill="none" stroke="#ffffff" stroke-opacity="0.20" stroke-width="3.80"/>
  <circle cx="41.31" cy="162.54" r="23.73" fill="none" stroke="#ffffff" stroke-opacity="0.35" stroke-width="2.50"/>
  <circle cx="1391.17" cy="443.02" r="52.17" fill="none" stroke="#ffffff" stroke-opacity="0.33" stroke-width="4.13"/>
  <circle cx="567.07" cy="573.08" r="16.59" fill="none" stroke="#ffffff" stroke-opacity="0.17" stroke-width="1.18"/>
  <circle cx="1760.11" cy="910.53" r="11.35" fill="none" stroke="#ffffff" stroke-opacity="0.18" stroke-width="2.82"/>
  <circle cx="988.32" cy="105.15" r="12.11" fill="none" stroke="#ffffff" stroke-opacity="0.32" stroke-width="2.45"/>
  <circle cx="394.73" cy="451.93" r="53.77" fill="none" stroke="#ffffff" stroke-opacity="0.26" stroke-width="3.63"/>
  <circle cx="1373.82" cy="216.47" r="55.10" fill="none" stroke="#ffffff" stroke-opacity="0.35" stroke-width="2.13"/>
  <circle cx="1745.65" cy="862.97" r="49.60" fill="none" stroke="#ffffff" stroke-opacity="0.19" stroke-width="3.21"/>
  <circle cx="379.07" cy="960.16" r="25.19" fill="none" stroke="#ffffff" stroke-opacity="0.18" stroke-width="2.18"/>
  <circle cx="431.39" cy="961.08" r="37.03" fill="none" stroke="#ffffff" stroke-opacity="0.36" stroke-width="2.74"/>
  <circle cx="2034.42" cy="938.89" r="55.62" fill="none" stroke="#ffffff" stroke-opacity="0.28" stroke-width="1.93"/>
  <circle cx="418.71" cy="996.58" r="55.98" fill="none" stroke="#ffffff" stroke-opacity="0.21" stroke-width="2.48"/>
  <circle cx="421.44" cy="980.05" r="37.38" fill="none" stroke="#ffffff" stroke-opacity="0.24" stroke-width="1.27"/>
  <circle cx="521.48" cy="382.48" r="19.09" fill="none" stroke="#ffffff" stroke-opacity="0.19" stroke-width="4.02"/>
  <circle cx="292.62" cy="219.04" r="55.55" fill="none" stroke="#ffffff" stroke-opacity="0.33" stroke-width="2.44"/>
  <circle cx="588.36" cy="837.18" r="54.55" fill="none" stroke="#ffffff" stroke-opacity="0.39" stroke-width="1.93"/>
  <circle cx="339.81" cy="654.82" r="23.36" fill="none" stroke="#ffffff" stroke-opacity="0.28" stroke-width="1.68"/>
  <circle cx="1599.47" cy="808.03" r="41.68" fill="none" stroke="#ffffff" stroke-opacity="0.39" stroke-width="3.45"/>
  <circle cx="914.50" cy="458.91" r="16.73" fill="none" stroke="#ffffff" stroke-opacity="0.38" stroke-width="4.88"/>
  <circle cx="1198.36" cy="1016.11" r="19.84" fill="none" stroke="#ffffff" stroke-opacity="0.20" stroke-width="2.50"/>
  <circle cx="477.27" cy="799.79" r="57.58" fill="none" stroke="#ffffff" stroke-opacity="0.31" stroke-width="4.84"/>
  <circle cx="1195.56" cy="800.03" r="8.23" fill="none" stroke="#ffffff" stroke-opacity="0.15" stroke-width="3.92"/>
  <circle cx="1591.65" cy="138.08" r="13.34" fill="none" stroke="#ffffff" stroke-opacity="0.39" stroke-width="4.48"/>
  <circle cx="1389.81" cy="461.29" r="52.69" fill="none" stroke="#ffffff" stroke-opacity="0.19" stroke-width="4.52"/>
  <circle cx="471.66" cy="524.38" r="54.77" fill="none" stroke="#ffffff" stroke-opacity="0.20" stroke-width="1.63"/>
  <circle cx="199.38" cy="666.80" r="32.96" fill="none" stroke="#ffffff" stroke-opacity="0.16" stroke-width="1.46"/>
  <circle cx="646.22" cy="217.05" r="14.83" fill="none" stroke="#ffffff" stroke-opacity="0.19" stroke-width="2.55"/>
  <circle cx="533.72" cy="673.30" r="15.63" fill="none" stroke="#ffffff" stroke-opacity="0.27" stroke-width="1.11"/>
  <circle cx="1521.75" cy="793.98" r="48.32" fill="none" stroke="#ffffff" stroke-opacity="0.32" stroke-width="3.54"/>
  <circle cx="873.53" cy="527.18" r="19.63" fill="none" stroke="#ffffff" stroke-opacity="0.17" stroke-width="4.32"/>
  <circle cx="1994.13" cy="397.54" r="13.58" fill="none" stroke="#ffffff" stroke-opacity="0.20" stroke-width="4.98"/>
  <circle cx="1305.70" cy="590.40" r="40.01" fill="none" stroke="#ffffff" stroke-opacity="0.17" stroke-width="4.13"/>
  <circle cx="743.36" cy="96.73" r="21.71" fill="none" stroke="#ffffff" stroke-opacity="0.40" stroke-width="4.76"/>
  <circle cx="373.26" cy="396.13" r="16.40" fill="none" stroke="#ffffff" stroke-opacity="0.33" stroke-width="2.42"/>
  <circle cx="1526.12" cy="39.80" r="30.68" fill="none" stroke="#ffffff" stroke-opacity="0.31" stroke-width="1.25"/>
  <circle cx="858.55" cy="618.66" r="52.71" fill="none" stroke="#ffffff" stroke-opacity="0.40" stroke-width="2.43"/>
  <circle cx="943.45" cy="727.32" r="10.59" fill="none" stroke="#ffffff" stroke-opacity="0.23" stroke-width="1.71"/>
  <circle cx="924.06" cy="515.30" r="38.65" fill="none" stroke="#ffffff" stroke-opacity="0.25" stroke-width="1.39"/>
  <circle cx="1018.91" cy="360.93" r="58.50" fill="none" stroke="#ffffff" stroke-opacity="0.18" stroke-width="3.07"/>
  <circle cx="716.88" cy="866.93" r="16.19" fill="none" stroke="#ffffff" stroke-opacity="0.18" stroke-width="1.22"/>
  <circle cx="260.30" cy="423.83" r="28.30" fill="none" stroke="#ffffff" stroke-opacity="0.30" stroke-width="1.47"/>
  <circle cx="977.32" cy="408.57" r="10.31" fill="none" stroke="#ffffff" stroke-opacity="0.32" stroke-width="4.45"/>
  <circle cx="1992.34" cy="698.19" r="11.00" fill="none" stroke="#ffffff" stroke-opacity="0.29" stroke-width="2.63"/>
  <circle cx="993.75" cy="386.99" r="28.07" fill="none" stroke="#ffffff" stroke-opacity="0.32" stroke-width="4.37"/>
  <circle cx="357.56" cy="669.53" r="46.08" fill="none" stroke="#ffffff" stroke-opacity="0.20" stroke-width="3.88"/>
  <circle cx="1807.95" cy="518.62" r="26.06" fill="none" stroke="#ffffff" stroke-opacity="0.18" stroke-width="2.62"/>
  <circle cx="24.47" cy="309.32" r="21.95" fill="none" stroke="#ffffff" stroke-opacity="0.35" stroke-width="3.57"/>
  <circle cx="337.29" cy="378.58" r="54.03" fill="none" stroke="#ffffff" stroke-opacity="0.22" stroke-width="2.51"/>
  <circle cx="692.47" cy="763.71" r="15.82" fill="none" stroke="#ffffff" stroke-opacity="0.20" stroke-width="2.66"/>
  <circle cx="1041.95" cy="296.48" r="23.08" fill="none" stroke="#ffffff" stroke-opacity="0.39" stroke-width="2.38"/>
  <circle cx="548.69" cy="29.83" r="10.18" fill="none" stroke="#ffffff" stroke-opacity="0.38" stroke-width="2.67"/>
  <circle cx="999.33" cy="239.44" r="53.18" fill="none" stroke="#ffffff" stroke-opacity="0.30" stroke-width="2.67"/>
  <circle cx="137.90" cy="269.44" r="38.85" fill="none" stroke="#ffffff" stroke-opacity="0.38" stroke-width="4.23"/>
  <circle cx="410.12" cy="184.14" r="12.17" fill="none" stroke="#ffffff" stroke-opacity="0.24" stroke-width="1.23"/>
  <circle cx="1892.90" cy="411.34" r="55.09" fill="none" stroke="#ffffff" stroke-opacity="0.31" stroke-width="1.48"/>
  <circle cx="498.02" cy="172.40" r="39.03" fill="none" stroke="#ffffff" stroke-opacity="0.18" stroke-width="4.25"/>
  <circle cx="1126.52" cy="958.45" r="28.37" fill="none" stroke="#ffffff" stroke-opacity="0.32" stroke-width="3.80"/>
  <circle cx="239.62" cy="850.03" r="33.66" fill="none" stroke="#ffffff" stroke-opacity="0.15" stroke-width="2.37"/>
  <circle cx="376.57" cy="388.88" r="15.19" fill="none" stroke="#ffffff" stroke-opacity="0.17" stroke-width="3.72"/>
  <circle cx="1010.45" cy="765.44" r="41.73" fill="none" stroke="#ffffff" stroke-opacity="0.19" stroke-width="3.30"/>
  <circle cx="1756.91" cy="652.90" r="18.69" fill="none" stroke="#ffffff" stroke-opacity="0.21" stroke-width="3.23"/>
  <circle cx="811.63" cy="461.69" r="40.53" fill="none" stroke="#ffffff" stroke-opacity="0.16" stroke-width="4.88"/>
  <circle cx="1113.92" cy="781.19" r="9.71" fill="none" stroke="#ffffff" stroke-opacity="0.16" stroke-width="3.74"/>
  <circle cx="559.28" cy="456.73" r="52.37" fill="none" stroke="#ffffff" stroke-opacity="0.39" stroke-width="3.66"/>
  <circle cx="725.69" cy="292.21" r="33.80" fill="none" stroke="#ffffff" stroke-opacity="0.26" stroke-width="4.25"/>
  <circle cx="504.95" cy="251.22" r="26.49" fill="none" stroke="#ffffff" stroke-opacity="0.26" stroke-width="2.65"/>
  <circle cx="251.01" cy="800.07" r="16.85" fill="none" stroke="#ffffff" stroke-opacity="0.35" stroke-width="3.93"/>
  <circle cx="201.37" cy="244.73" r="42.92" fill="none" stroke="#ffffff" stroke-opacity="0.31" stroke-width="3.04"/>
  <circle cx="1549.64" cy="752.86" r="28.33" fill="none" stroke="#ffffff" stroke-opacity="0.27" stroke-width="3.63"/>
  <circle cx="1637.65" cy="213.92" r="12.41" fill="none" stroke="#ffffff" stroke-opacity="0.19" stroke-width="2.48"/>
  <circle cx="1132.88" cy="576.64" r="29.49" fill="none" stroke="#ffffff" stroke-opacity="0.27" stroke-width="4.24"/>
  <circle cx="498.39" cy="683.22" r="14.59" fill="none" stroke="#ffffff" stroke-opacity="0.27" stroke-width="2.66"/>
  <circle cx="1005.86" cy="1021.20" r="16.60" fill="none" stroke="#ffffff" stroke-opacity="0.33" stroke-width="1.82"/>
  <circle cx="614.68" cy="827.83" r="29.61" fill="none" stroke="#ffffff" stroke-opacity="0.34" stroke-width="4.54"/>
  <circle cx="432.68" cy="440.69" r="20.34" fill="none" stroke="#ffffff" stroke-opacity="0.16" stroke-width="3.85"/>
  <circle cx="2021.48" cy="9.39" r="40.32" fill="none" stroke="#ffffff" stroke-opacity="0.27" stroke-width="2.34"/>
  <circle cx="477.81" cy="359.29" r="58.03" fill="none" stroke="#ffffff" stroke-opacity="0.38" stroke-width="1.65"/>
  <circle cx="941.49" cy="314.28" r="46.49" fill="none" stroke="#ffffff" stroke-opacity="0.24" stroke-width="1.49"/>
  <circle cx="1618.76" cy="233.00" r="56.54" fill="none" stroke="#ffffff" stroke-opacity="0.20" stroke-width="4.06"/>
</svg>
